<?xml version="1.0" standalone="no"?>
<svg id="Net" width="1440" height="739" viewBox="0 0 1440 739" fill="none"
  xmlns="http://www.w3.org/2000/svg" style="max-width: 100%; max-height: 100%;">
  <path d="M1986.83 -52.427C1930 -81.2506 1837.88 -69.1367 1745.01 1.42448C1711.91 26.5747 1690.47 62.7778 1673.08 98.6787C1649.58 147.298 1616.43 194.292 1571.88 231.793C1527.93 269.025 1462.64 303.26 1401.57 298.746C1358.42 295.554 1322.58 263.466 1334.95 246.96C1337.69 243.311 1341.75 242.062 1345.74 242.813C1351.37 243.638 1356.22 247.964 1357.66 254.584C1360.24 266.461 1352.05 282.592 1338.07 298.501C1289.13 354.173 1182.86 401.551 1075.84 383.707C955.2 363.593 871.59 445.37 883.53 491.189C896.88 542.412 936.25 482.349 821.02 460.758C755.21 454.978 675.08 497.581 584.44 551.547C453.53 629.504 40.7299 623.643 -16.6001 351.594" stroke="url(#paint0_linear_585_8237)" stroke-width="0.5658" stroke-miterlimit="10" stroke-dasharray="0,0,0,2550.5322265625">
    <animate attributeType="XML" attributeName="stroke-dasharray" repeatCount="1" dur="10s" values="0,0,0,2550.5322265625;
          0,1275.26611328125,1275.26611328125,0;
          2550.5322265625,0,0,0" keyTimes="0; 0.5; 1" fill="freeze"></animate>
  </path>
  <path d="M1997.94 -33.5704C1929.15 -68.4592 1818.24 -79.3813 1720.2 -19.1056C1682.17 4.27332 1660.39 41.864 1643.28 78.7446C1620.07 128.841 1586.19 177.24 1539.71 215.181C1494.41 252.339 1424.62 287.089 1361.47 276.837C1317.03 269.621 1281.97 228.308 1306.68 207.492C1312.21 202.831 1319.5 201.206 1326.72 202.047C1336.53 203.059 1345.83 208.488 1350.68 216.708C1359.37 231.442 1354.98 251.858 1343.54 270.976C1301.96 340.459 1190.88 392.058 1082.41 364.81C949.3 331.374 865.77 426.171 889.29 467.917C919.38 521.327 975 441.477 849.34 410.588C785.21 398.253 703.23 443.052 613.22 512.299C501.45 598.28 55.2899 620.606 -11.8701 333.823" stroke="url(#paint1_linear_585_8237)" stroke-width="0.5658" stroke-miterlimit="10" stroke-dasharray="0,0,0,2713.75390625">
    <animate attributeType="XML" attributeName="stroke-dasharray" repeatCount="1" dur="10s" values="0,0,0,2713.75390625;
          0,1356.876953125,1356.876953125,0;
          2713.75390625,0,0,0" keyTimes="0; 0.5; 1" fill="freeze"></animate>
  </path>
  <path d="M-28.77 713.616C712.5 680.253 397.42 365.618 501.99 262.29C531.2 233.426 588.79 243.091 619.87 266.731C661.63 298.493 635.58 361.716 574.24 354.557C512.32 347.333 500.39 268.559 536.81 235.981C554.88 219.818 582.87 213.133 609.67 212.912C708.75 212.112 783.17 283.253 865.8 318.909C926.23 344.99 993.41 363.177 1061.74 361.528C1138.03 359.691 1210.73 330.313 1254.22 278.461C1359.85 152.547 1346.7 -94.295 1587.19 -118.319C1799.65 -139.534 1960.03 55.8475 2049.16 186.268" stroke="url(#paint2_linear_585_8237)" stroke-width="0.5658" stroke-miterlimit="10" stroke-dasharray="0,0,0,3158.89697265625">
    <animate attributeType="XML" attributeName="stroke-dasharray" repeatCount="1" dur="10s" values="0,0,0,3158.89697265625;
          0,1579.448486328125,1579.448486328125,0;
          3158.89697265625,0,0,0" keyTimes="0; 0.5; 1" fill="freeze"></animate>
  </path>
  <path d="M2048.23 180.407C1993.28 102.85 1911.5 2.09352 1810.05 -58.6475C1766.87 -84.4264 1720.75 -102.842 1671.32 -110.124C1643.99 -114.148 1615.52 -114.752 1585.97 -111.185C1539.21 -105.626 1501.93 -91.667 1471.32 -71.9697C1415.79 -36.2564 1381.92 18.9175 1354.16 76.0994C1334.72 116.147 1318.68 156.685 1301.99 194.643C1289.45 223.173 1275.45 250.462 1256.89 274.045C1239.13 296.656 1215.42 315.382 1188.04 329.431C1152.83 347.536 1111.72 357.936 1069.26 359.65C1001.48 362.507 934.04 345.357 873.22 319.178C788.74 282.861 714 216.463 618.74 219.214C612.48 219.393 606.19 219.973 600.03 220.952C581.05 223.965 562.98 230.666 550.28 242.307C516.28 273.375 528.39 347.463 585.72 353.438C595.27 354.434 603.85 353.659 611.35 351.446C649.81 340.296 660.4 293.701 625.37 268.682C594.23 246.437 537.62 237.768 508.39 266.731C497.51 277.506 491.06 290.542 487.41 305.285C456.17 431.73 617.36 681.502 -27.9102 700.212" stroke="url(#paint3_linear_585_8237)" stroke-width="0.5658" stroke-miterlimit="10" stroke-dasharray="0,0,0,3095.33642578125">
    <animate attributeType="XML" attributeName="stroke-dasharray" repeatCount="1" dur="10s" values="0,0,0,3095.33642578125;
          0,1547.668212890625,1547.668212890625,0;
          3095.33642578125,0,0,0" keyTimes="0; 0.5; 1" fill="freeze"></animate>
  </path>
  <path d="M2047.3 174.529C1991.09 97.9927 1907.08 -1.38402 1805.41 -58.7048C1762.06 -83.0061 1716.74 -99.4137 1668.41 -105.169C1641.68 -108.336 1613.79 -108.156 1584.76 -104.083C1538.91 -97.6505 1502.05 -83.3325 1471.47 -63.5209C1416.19 -27.7668 1380.82 26.7703 1351.74 81.3156C1331.38 119.519 1314.93 156.758 1300.27 192.431C1289.14 219.524 1276.82 246.127 1259.56 269.596C1243.08 292.126 1220.29 311.203 1193.59 325.635C1159.25 344.304 1118.79 355.283 1076.78 357.748C1009.53 361.691 941.84 345.7 880.63 319.431C794.29 282.453 719.21 220.797 627.81 225.507C621.82 225.817 615.85 226.544 610.06 227.63C592.29 230.96 575.5 237.572 563.75 248.625C532.17 278.191 544.46 347.569 597.2 352.312C606.19 353.12 614.22 352.303 621.17 350.067C657.28 338.843 666.04 294.142 630.85 270.624C599.66 249.776 544.01 242.103 514.76 271.163C503.91 281.93 497.35 294.909 493.51 309.562C460.62 435.207 599.58 679.265 -27.0698 686.808" stroke="url(#paint4_linear_585_8237)" stroke-width="0.5658" stroke-miterlimit="10" stroke-dasharray="0,0,0,3033.665283203125">
    <animate attributeType="XML" attributeName="stroke-dasharray" repeatCount="1" dur="10s" values="0,0,0,3033.665283203125;
          0,1516.8326416015625,1516.8326416015625,0;
          3033.665283203125,0,0,0" keyTimes="0; 0.5; 1" fill="freeze"></animate>
  </path>
  <path d="M2046.36 168.652C1988.89 93.1359 1902.65 -4.86115 1800.76 -58.7534C1757.24 -81.5691 1712.72 -95.985 1665.49 -100.197C1639.36 -102.507 1612.05 -101.569 1583.54 -96.9564C1538.61 -89.6913 1502.15 -74.9652 1471.6 -55.0474C1416.57 -19.2444 1379.71 34.6397 1349.31 86.5565C1328.03 122.915 1311.18 156.848 1298.54 190.235C1288.83 215.883 1278.17 241.809 1262.21 265.172C1247.02 287.628 1225.14 307.04 1199.13 321.864C1165.66 341.088 1125.85 352.696 1084.29 355.871C1017.58 360.973 949.64 346.067 888.04 319.701C799.85 282.069 724.38 225.148 636.88 231.809C631.16 232.242 625.51 233.115 620.08 234.307C603.52 237.964 588.01 244.47 577.21 254.943C548.05 283 560.51 347.659 608.67 351.194C617.11 351.814 624.58 350.957 630.99 348.696C664.76 337.398 671.7 294.591 636.34 272.576C605.1 253.123 550.41 246.446 521.15 275.596C510.34 286.355 503.67 299.277 499.63 313.848C465.09 438.693 581.83 677.037 -26.21 673.412" stroke="url(#paint5_linear_585_8237)" stroke-width="0.5658" stroke-miterlimit="10" stroke-dasharray="0,0,0,2974.07275390625">
    <animate attributeType="XML" attributeName="stroke-dasharray" repeatCount="1" dur="10s" values="0,0,0,2974.07275390625;
          0,1487.036376953125,1487.036376953125,0;
          2974.07275390625,0,0,0" keyTimes="0; 0.5; 1" fill="freeze"></animate>
  </path>
  <path d="M2045.42 162.783C1986.69 88.2787 1898.39 -8.55113 1796.1 -58.8027C1752.48 -80.2306 1708.69 -92.5568 1662.56 -95.2261C1637.03 -96.6791 1610.3 -94.9812 1582.31 -89.8385C1538.29 -81.7408 1502.25 -66.6065 1471.72 -46.5826C1416.94 -10.7387 1378.58 42.5004 1346.86 91.7887C1324.65 126.302 1307.42 156.921 1296.79 188.031C1288.52 212.242 1279.42 237.45 1264.85 260.731C1250.86 283.073 1229.94 302.811 1204.66 318.076C1172.01 337.798 1132.89 350.091 1091.79 353.977C1025.61 360.23 957.43 346.418 895.43 319.962C805.39 281.669 729.5 229.474 645.93 238.111C640.48 238.674 635.14 239.686 630.09 240.992C614.73 244.968 600.54 251.4 590.66 261.269C564.01 287.873 576.52 347.732 620.13 350.075C628.01 350.499 634.93 349.61 640.79 347.324C672.22 335.961 677.35 295.048 641.81 274.526C610.54 256.478 556.8 250.78 527.51 280.036C516.73 290.787 509.95 303.652 505.72 318.133C469.53 442.178 564.04 674.8 -25.3799 660.017" stroke="url(#paint6_linear_585_8237)" stroke-width="0.5658" stroke-miterlimit="10" stroke-dasharray="0,0,0,2916.62939453125">
    <animate attributeType="XML" attributeName="stroke-dasharray" repeatCount="1" dur="10s" values="0,0,0,2916.62939453125;
          0,1458.314697265625,1458.314697265625,0;
          2916.62939453125,0,0,0" keyTimes="0; 0.5; 1" fill="freeze"></animate>
  </path>
  <path d="M2044.49 156.905C1984.5 83.4218 1894 -12.0856 1791.46 -58.8515C1747.68 -78.8183 1704.69 -89.1282 1659.64 -90.2628C1634.72 -90.8587 1608.56 -88.4098 1581.1 -82.7202C1538 -73.798 1502.36 -58.2474 1471.87 -38.1174C1417.34 -2.23277 1377.48 50.3615 1344.45 97.0132C1321.32 129.69 1303.72 156.979 1295.08 185.827C1288.26 208.585 1280.78 233.123 1267.53 256.298C1254.81 278.559 1234.81 298.632 1210.23 314.297C1178.43 334.565 1139.98 347.504 1099.33 352.091C1033.68 359.512 965.25 346.777 902.87 320.223C810.97 281.277 734.62 233.809 655.03 244.413C649.84 245.107 644.83 246.258 640.14 247.678C625.97 251.972 613.09 258.323 604.15 267.604C579.95 292.722 592.77 345.455 631.62 348.965C638.9 349.626 645.31 348.271 650.63 345.961C679.71 334.525 683.06 295.522 647.31 276.485C616.03 259.833 563.21 255.131 533.91 284.477C523.17 295.22 516.28 308.027 511.85 322.419C474.01 445.664 546.29 672.572 -24.5098 646.621" stroke="url(#paint7_linear_585_8237)" stroke-width="0.5658" stroke-miterlimit="10" stroke-dasharray="0,0,0,2860.82421875">
    <animate attributeType="XML" attributeName="stroke-dasharray" repeatCount="1" dur="10s" values="0,0,0,2860.82421875;
          0,1430.412109375,1430.412109375,0;
          2860.82421875,0,0,0" keyTimes="0; 0.5; 1" fill="freeze"></animate>
  </path>
  <path d="M2043.55 151.028C1982.3 78.5567 1889.59 -15.612 1786.81 -58.9087C1742.87 -77.4142 1700.67 -85.6997 1656.72 -85.2997C1632.4 -85.0385 1606.83 -81.8386 1579.88 -75.6102C1537.69 -65.8635 1502.47 -49.8966 1472 -29.6605C1417.72 6.26497 1376.36 58.2144 1342.02 102.238C1317.97 133.069 1300.02 157.02 1293.35 183.615C1288 204.92 1282.11 228.789 1270.19 251.85C1258.73 274.028 1239.66 294.436 1215.77 310.501C1184.83 331.317 1147.03 344.892 1106.83 350.189C1041.71 358.769 973.04 347.12 910.26 320.476C816.51 280.869 739.64 238.144 664.08 250.699C659.15 251.515 654.46 252.813 650.15 254.347C637.16 258.968 625.6 265.221 617.6 273.914C595.85 297.538 608.7 344.875 643.08 347.83C649.8 348.41 655.66 346.908 660.43 344.573C687.17 333.063 688.75 295.962 652.78 278.428C621.5 263.172 569.6 259.466 540.28 288.91C529.57 299.644 522.58 312.395 517.95 326.696C478.46 449.142 528.52 670.335 -23.6802 633.218" stroke="url(#paint8_linear_585_8237)" stroke-width="0.5658" stroke-miterlimit="10" stroke-dasharray="0,0,0,2808.061767578125">
    <animate attributeType="XML" attributeName="stroke-dasharray" repeatCount="1" dur="10s" values="0,0,0,2808.061767578125;
          0,1404.0308837890625,1404.0308837890625,0;
          2808.061767578125,0,0,0" keyTimes="0; 0.5; 1" fill="freeze"></animate>
  </path>
  <path d="M2042.62 145.151C1980.11 73.6998 1885.19 -19.1383 1782.16 -58.9575C1738.06 -76.0019 1696.65 -82.2712 1653.8 -80.3284C1630.08 -79.21 1605.09 -75.2591 1578.66 -68.492C1537.39 -57.9209 1502.58 -41.5458 1472.14 -21.1954C1418.11 14.7791 1375.25 66.0837 1339.59 107.47C1314.62 136.457 1296.35 157.044 1291.62 181.419C1287.77 201.255 1283.44 224.471 1272.85 247.425C1262.65 269.522 1244.51 290.265 1221.32 306.73C1191.23 328.092 1154.09 342.312 1114.35 348.312C1049.76 358.067 980.84 347.488 917.68 320.746C822.08 280.477 744.64 242.503 673.15 257.009C668.48 257.955 664.1 259.392 660.18 261.033C648.35 265.98 638.13 272.135 631.07 280.241C611.78 302.371 624.54 344.214 654.56 346.72C660.72 347.234 666.03 345.569 670.26 343.21C694.66 331.627 694.48 296.436 658.27 280.387C627 266.535 576 263.817 546.66 293.359C535.99 304.085 528.88 316.778 524.06 330.99C482.92 452.635 510.75 668.115 -22.8301 619.831" stroke="url(#paint9_linear_585_8237)" stroke-width="0.5658" stroke-miterlimit="10" stroke-dasharray="0,0,0,2757.9697265625">
    <animate attributeType="XML" attributeName="stroke-dasharray" repeatCount="1" dur="10s" values="0,0,0,2757.9697265625;
          0,1378.98486328125,1378.98486328125,0;
          2757.9697265625,0,0,0" keyTimes="0; 0.5; 1" fill="freeze"></animate>
  </path>
  <path d="M2041.68 139.281C1977.92 68.8508 1880.76 -22.6567 1777.51 -59.0067C1733.24 -74.5899 1692.63 -78.8427 1650.88 -75.3653C1627.76 -73.3898 1603.36 -68.6879 1577.44 -61.3739C1537.09 -49.9864 1502.68 -33.187 1472.27 -12.7304C1418.49 23.2848 1374.14 73.9446 1337.16 112.703C1311.27 139.853 1292.69 157.044 1289.89 179.215C1287.57 197.565 1284.78 220.144 1275.51 242.984C1266.58 265.008 1249.35 286.085 1226.87 302.942C1197.64 324.86 1161.16 339.724 1121.87 346.418C1057.8 357.34 988.65 347.838 925.09 320.998C827.63 280.077 749.56 246.87 682.22 263.302C677.8 264.38 673.74 265.963 670.2 267.71C659.51 272.992 650.66 279.049 644.53 286.559C627.7 307.195 640.22 347.789 666.03 345.594C671.63 345.12 676.39 344.214 680.07 341.83C702.13 330.174 700.22 296.885 663.75 282.33C632.51 269.865 582.39 268.143 553.04 297.783C542.4 308.501 535.19 321.137 530.17 335.259C487.38 456.113 492.98 665.87 -21.98 606.419" stroke="url(#paint10_linear_585_8237)" stroke-width="0.5658" stroke-miterlimit="10" stroke-dasharray="0,0,0,2711.873779296875">
    <animate attributeType="XML" attributeName="stroke-dasharray" repeatCount="1" dur="10s" values="0,0,0,2711.873779296875;
          0,1355.9368896484375,1355.9368896484375,0;
          2711.873779296875,0,0,0" keyTimes="0; 0.5; 1" fill="freeze"></animate>
  </path>
  <path d="M2040.75 133.404C1975.73 63.986 1876.35 -26.1746 1772.86 -59.0553C1728.42 -73.1773 1688.62 -75.414 1647.95 -70.3937C1625.44 -67.5612 1601.61 -62.1164 1576.21 -54.2554C1536.78 -42.0517 1502.78 -24.8277 1472.4 -4.26508C1418.87 31.791 1373.02 81.8058 1334.72 117.935C1307.91 143.241 1289.06 156.987 1288.15 177.011C1287.39 193.851 1286.1 215.818 1278.16 238.552C1270.49 260.494 1254.19 281.906 1232.41 299.163C1204.04 321.627 1168.21 337.137 1129.38 344.533C1065.84 356.639 996.44 348.198 932.5 321.268C833.19 279.686 754.42 251.295 691.29 269.604C687.11 270.812 683.38 272.535 680.23 274.396C670.67 280.02 663.19 285.963 658 292.893C643.64 312.044 655.86 347.749 677.51 344.484C682.51 343.733 686.76 342.876 689.9 340.467C709.61 328.737 705.99 297.342 669.24 284.29C638.05 273.212 588.8 272.494 559.42 302.232C548.82 312.942 541.5 325.521 536.28 339.561C491.84 459.615 475.21 663.65 -21.1299 593.031" stroke="url(#paint11_linear_585_8237)" stroke-width="0.5658" stroke-miterlimit="10" stroke-dasharray="0,0,0,2667.90478515625">
    <animate attributeType="XML" attributeName="stroke-dasharray" repeatCount="1" dur="10s" values="0,0,0,2667.90478515625;
          0,1333.952392578125,1333.952392578125,0;
          2667.90478515625,0,0,0" keyTimes="0; 0.5; 1" fill="freeze"></animate>
  </path>
  <path d="M2039.81 127.527C1973.53 59.1286 1871.91 -29.6932 1768.21 -59.1128C1723.6 -71.7655 1684.6 -71.9859 1645.03 -65.431C1623.12 -61.7413 1599.88 -55.5537 1574.99 -47.1376C1536.48 -34.1257 1502.89 -16.4691 1472.53 4.19967C1419.25 40.2966 1371.9 89.6665 1332.29 123.168C1304.56 146.628 1285.45 156.865 1286.42 174.815C1287.25 190.096 1287.44 211.508 1280.82 234.119C1274.42 255.988 1259.05 277.734 1237.95 295.383C1210.43 318.403 1175.26 334.557 1136.89 342.647C1073.87 355.928 1004.24 348.565 939.9 321.529C838.74 279.285 759.21 255.768 700.35 275.906C696.41 277.253 693 279.122 690.24 281.073C681.79 287.057 675.72 292.869 671.45 299.211C659.57 316.868 672.7 350.606 688.97 343.357C693.49 343.055 697.11 341.528 699.71 339.088C717.08 327.284 711.76 297.783 674.72 286.24C643.6 276.543 595.19 276.837 565.8 306.664C555.24 317.366 547.8 329.88 542.39 343.839C496.3 463.092 457.45 661.413 -20.29 579.628" stroke="url(#paint12_linear_585_8237)" stroke-width="0.5658" stroke-miterlimit="10" stroke-dasharray="0,0,0,2628.0146484375">
    <animate attributeType="XML" attributeName="stroke-dasharray" repeatCount="1" dur="10s" values="0,0,0,2628.0146484375;
          0,1314.00732421875,1314.00732421875,0;
          2628.0146484375,0,0,0" keyTimes="0; 0.5; 1" fill="freeze"></animate>
  </path>
  <path d="M2038.88 121.649C1971.34 54.2719 1867.48 -33.2031 1763.57 -59.1615C1718.79 -70.3448 1680.59 -68.5571 1642.12 -60.4675C1620.81 -55.9207 1598.15 -48.9904 1573.79 -40.0274C1536.2 -26.2074 1503.01 -8.11811 1472.69 12.6568C1419.67 48.8026 1370.81 97.5196 1329.88 128.392C1301.23 150.016 1281.87 156.636 1284.71 172.603C1287.14 186.268 1288.8 207.173 1283.5 229.679C1278.37 251.474 1263.92 273.555 1243.52 291.595C1216.86 315.17 1182.34 331.978 1144.42 340.753C1081.93 355.226 1012.05 348.916 947.33 321.79C844.31 278.894 763.98 260.307 709.44 282.2C705.73 283.685 702.65 285.702 700.29 287.751C692.94 294.118 688.28 299.775 684.94 305.53C675.56 321.684 688.76 350.932 700.47 342.239C704.43 341.79 707.5 340.182 709.55 337.716C724.58 325.839 717.58 298.216 680.23 288.191C649.19 279.857 601.61 281.171 572.2 311.105C561.67 321.799 554.13 334.255 548.52 348.124C500.78 466.578 439.7 659.184 -19.4199 566.232" stroke="url(#paint13_linear_585_8237)" stroke-width="0.5658" stroke-miterlimit="10" stroke-dasharray="0,0,0,2591.220458984375">
    <animate attributeType="XML" attributeName="stroke-dasharray" repeatCount="1" dur="10s" values="0,0,0,2591.220458984375;
          0,1295.6102294921875,1295.6102294921875,0;
          2591.220458984375,0,0,0" keyTimes="0; 0.5; 1" fill="freeze"></animate>
  </path>
  <path d="M2037.94 115.78C1969.14 49.4148 1863.04 -36.7051 1758.91 -59.2105C1713.95 -68.9245 1676.56 -65.1287 1639.19 -55.4963C1618.48 -50.0924 1596.41 -42.4192 1572.56 -32.9011C1535.89 -18.273 1503.11 0.240792 1472.81 21.13C1420.04 57.3167 1369.68 105.397 1327.44 133.633C1297.87 153.412 1278.23 156.293 1282.97 170.415C1286.99 182.374 1290.13 202.871 1286.15 225.254C1282.29 246.976 1268.76 269.392 1249.06 287.824C1223.26 311.962 1189.39 329.415 1151.93 338.876C1089.96 354.54 1019.85 349.284 954.73 322.06C849.86 278.502 768.66 264.951 718.5 288.51C715.02 290.142 712.27 292.314 710.31 294.444C704.05 301.228 700.82 306.689 698.4 311.872C691.54 326.525 704.8 351.275 711.94 341.137C715.34 340.541 717.86 338.851 719.37 336.353C732.05 324.403 723.4 298.648 685.71 290.151C654.76 283.171 608.01 285.522 578.58 315.554C568.09 326.239 560.44 338.639 554.63 352.418C505.24 470.072 421.93 656.964 -18.5698 552.845" stroke="url(#paint14_linear_585_8237)" stroke-width="0.5658" stroke-miterlimit="10" stroke-dasharray="0,0,0,2558.82470703125">
    <animate attributeType="XML" attributeName="stroke-dasharray" repeatCount="1" dur="10s" values="0,0,0,2558.82470703125;
          0,1279.412353515625,1279.412353515625,0;
          2558.82470703125,0,0,0" keyTimes="0; 0.5; 1" fill="freeze"></animate>
  </path>
  <path d="M2037.01 109.903C1966.95 44.5577 1858.6 -40.2071 1754.27 -59.2596C1709.13 -67.5042 1672.53 -61.7575 1636.27 -50.5252C1616.15 -44.2968 1594.67 -35.8562 1571.34 -25.783C1535.59 -10.3549 1503.21 8.59962 1472.94 29.5949C1420.42 65.8224 1368.57 113.258 1325 138.857C1294.51 156.791 1271.5 157.167 1281.23 168.203C1284.05 179.068 1291.46 198.545 1288.79 220.814C1286.2 242.462 1273.59 265.212 1254.59 284.036C1229.65 308.729 1196.43 326.835 1159.43 336.982C1097.98 353.838 1027.64 349.634 962.13 322.321C855.41 278.11 773.32 269.702 727.56 294.812C724.3 296.599 721.89 298.926 720.32 301.13C715.16 308.354 713.36 313.595 711.85 318.199C707.53 331.325 720.82 351.61 723.4 340.018C726.25 339.276 728.21 337.504 729.17 334.982C739.51 322.966 729.22 299.056 691.18 292.101C660.34 286.461 614.39 289.865 584.95 319.986C574.49 330.664 566.73 343.006 560.73 356.695C509.69 473.549 404.16 654.727 -17.73 539.441" stroke="url(#paint15_linear_585_8237)" stroke-width="0.5658" stroke-miterlimit="10" stroke-dasharray="0,0,0,2532.53466796875">
    <animate attributeType="XML" attributeName="stroke-dasharray" repeatCount="1" dur="10s" values="0,0,0,2532.53466796875;
          0,1266.267333984375,1266.267333984375,0;
          2532.53466796875,0,0,0" keyTimes="0; 0.5; 1" fill="freeze"></animate>
  </path>
  <path d="M2036.07 104.025C1964.75 39.7007 1854.15 -43.701 1749.62 -59.3168C1704.3 -66.084 1668.5 -58.3372 1633.35 -45.5702C1613.83 -38.4847 1592.94 -29.3095 1570.12 -18.6813C1535.29 -2.45318 1503.32 16.9422 1473.08 38.0436C1420.81 74.3119 1367.46 121.102 1322.58 144.073C1291.17 160.171 1267.59 157.199 1279.51 165.983C1283.62 175.378 1292.82 194.21 1291.46 216.357C1290.14 237.932 1278.46 261.025 1260.14 280.232C1236.07 305.489 1203.5 324.239 1166.95 335.071C1106.03 353.128 1035.44 349.969 969.54 322.558C860.96 277.685 777.99 274.567 736.62 301.081C733.58 303.032 731.53 305.513 730.34 307.774C726.3 315.472 725.92 320.435 725.31 324.484C723.56 336.043 736.86 351.895 734.87 338.859C737.16 337.969 738.56 336.116 738.99 333.57C746.99 321.48 735.06 299.407 696.66 294.02C665.94 289.71 620.79 294.175 591.32 324.394C580.9 335.055 573.03 347.349 566.83 360.948C514.14 477.002 386.38 652.458 -16.8999 526.013" stroke="url(#paint16_linear_585_8237)" stroke-width="0.5658" stroke-miterlimit="10" stroke-dasharray="0,0,0,2512.03564453125">
    <animate attributeType="XML" attributeName="stroke-dasharray" repeatCount="1" dur="10s" values="0,0,0,2512.03564453125;
          0,1256.017822265625,1256.017822265625,0;
          2512.03564453125,0,0,0" keyTimes="0; 0.5; 1" fill="freeze"></animate>
  </path>
  <path d="M2035.14 98.1478C1962.56 34.8354 1849.7 -47.1866 1744.97 -59.3658C1699.47 -64.6555 1664.48 -54.9006 1630.43 -40.599C1611.51 -32.6564 1591.2 -22.7465 1568.9 -11.555C1534.99 5.46487 1503.43 25.3092 1473.21 46.5167C1421.19 82.834 1366.34 128.971 1320.15 149.314C1287.82 163.566 1263.67 157.256 1277.79 163.795C1283.19 171.721 1294.17 189.917 1294.13 211.94C1294.09 233.45 1283.32 256.87 1265.7 276.469C1242.49 302.281 1210.57 321.692 1174.48 333.202C1114.09 352.467 1043.26 350.344 976.97 322.843C866.54 277.31 782.71 279.612 745.71 307.407C742.89 309.521 741.2 312.158 740.38 314.484C737.5 322.672 738.5 327.317 738.79 330.835C739.6 340.769 752.91 352.255 746.36 337.765C748.09 336.729 748.94 334.794 748.82 332.223C754.48 320.06 740.93 299.799 702.16 295.995C671.56 292.991 627.2 298.534 597.72 328.851C587.33 339.504 579.36 351.74 572.96 365.258C518.62 480.512 368.63 650.254 -16.0303 512.642" stroke="url(#paint17_linear_585_8237)" stroke-width="0.5658" stroke-miterlimit="10" stroke-dasharray="0,0,0,2499.56640625">
    <animate attributeType="XML" attributeName="stroke-dasharray" repeatCount="1" dur="10s" values="0,0,0,2499.56640625;
          0,1249.783203125,1249.783203125,0;
          2499.56640625,0,0,0" keyTimes="0; 0.5; 1" fill="freeze"></animate>
  </path>
  <path d="M2034.2 92.2786C1960.37 29.9866 1845.24 -50.656 1740.32 -59.4149C1694.64 -63.227 1660.46 -51.4723 1627.51 -35.6278C1609.19 -26.8199 1589.46 -16.1835 1567.68 -4.43686C1534.68 13.3749 1503.53 33.6681 1473.35 54.9817C1421.58 91.3398 1365.23 136.84 1317.72 154.546C1284.47 166.954 1259.75 157.297 1276.06 161.591C1282.75 168.048 1295.52 185.598 1296.79 207.5C1298.03 228.936 1288.18 252.69 1271.25 272.681C1248.91 299.056 1217.63 319.121 1181.99 331.308C1122.13 351.781 1051.05 350.695 984.38 323.096C872.1 276.91 787.48 284.763 754.78 313.692C752.19 315.986 750.87 318.77 750.41 321.153C748.74 329.839 751.05 334.133 752.26 337.153C755.56 345.373 768.95 352.573 757.84 336.647C759.01 335.463 759.31 333.447 758.65 330.851C761.96 318.615 746.8 300.15 707.66 297.946C677.19 296.232 633.61 302.876 604.11 333.292C593.76 343.936 585.67 356.116 579.08 369.544C523.09 483.997 350.87 648.025 -15.1699 499.246" stroke="url(#paint18_linear_585_8237)" stroke-width="0.5658" stroke-miterlimit="10" stroke-dasharray="0,0,0,2496.37109375">
    <animate attributeType="XML" attributeName="stroke-dasharray" repeatCount="1" dur="10s" values="0,0,0,2496.37109375;
          0,1248.185546875,1248.185546875,0;
          2496.37109375,0,0,0" keyTimes="0; 0.5; 1" fill="freeze"></animate>
  </path>
  <path d="M2033.27 86.4012C1958.18 25.1295 1840.79 -54.1334 1735.68 -59.4638C1689.82 -61.7903 1656.45 -48.0356 1624.59 -30.6647C1606.87 -20.9996 1587.72 -9.63674 1566.47 2.68126C1534.38 21.2766 1503.65 42.0188 1473.49 63.4468C1421.97 99.8457 1364.12 144.702 1315.3 159.779C1281.13 170.342 1255.84 157.346 1274.34 159.387C1282.32 164.374 1296.89 181.28 1299.46 203.067C1301.98 224.43 1293.05 248.527 1276.81 268.902C1255.33 295.84 1224.71 316.566 1189.52 329.423C1130.19 351.112 1058.87 351.055 991.8 323.357C877.66 276.51 792.36 290.052 763.86 319.994C761.49 322.476 760.56 325.398 760.45 327.831C760.04 337.014 763.54 340.932 765.74 343.471C771.35 349.944 785.01 352.891 769.32 335.52C769.93 334.19 769.68 332.092 768.47 329.472C769.44 317.162 752.66 300.468 713.14 299.889C682.8 299.448 640.01 307.211 610.49 337.724C600.17 348.361 591.98 360.483 585.19 373.821C527.55 487.475 333.11 645.789 -14.3198 485.842" stroke="url(#paint19_linear_585_8237)" stroke-width="0.5658" stroke-miterlimit="10" stroke-dasharray="0,0,0,2503.441162109375">
    <animate attributeType="XML" attributeName="stroke-dasharray" repeatCount="1" dur="10s" values="0,0,0,2503.441162109375;
          0,1251.7205810546875,1251.7205810546875,0;
          2503.441162109375,0,0,0" keyTimes="0; 0.5; 1" fill="freeze"></animate>
  </path>
  <path d="M2032.33 80.5243C1955.98 20.2649 1836.34 -57.5941 1731.02 -59.5206C1684.97 -60.3614 1652.42 -44.6067 1621.66 -25.7011C1604.54 -15.179 1585.97 -3.08956 1565.24 9.79169C1534.06 29.1707 1503.74 50.37 1473.62 71.9041C1422.35 108.344 1363.01 152.555 1312.86 165.003C1277.76 173.73 1251.91 157.387 1272.6 157.183C1281.87 160.702 1298.23 176.962 1302.11 198.627C1305.92 219.924 1297.9 244.356 1282.34 265.115C1261.73 292.616 1231.76 314.003 1197.02 327.529C1138.22 350.435 1066.65 351.414 999.2 323.619C883.21 276.11 797.36 295.448 772.92 326.297C770.8 328.974 770.23 332.019 770.46 334.517C771.34 344.182 775.95 347.782 779.19 349.798C786.95 354.622 801.03 353.226 780.78 334.402C780.84 332.917 780.03 330.745 778.28 328.101C776.91 315.717 758.51 300.771 718.62 301.848C688.41 302.665 646.4 311.554 616.86 342.165C606.58 352.794 598.28 364.859 591.29 378.107C532 490.961 315.33 643.561 -13.4902 472.439" stroke="url(#paint20_linear_585_8237)" stroke-width="0.5658" stroke-miterlimit="10" stroke-dasharray="0,0,0,2519.12744140625">
    <animate attributeType="XML" attributeName="stroke-dasharray" repeatCount="1" dur="10s" values="0,0,0,2519.12744140625;
          0,1259.563720703125,1259.563720703125,0;
          2519.12744140625,0,0,0" keyTimes="0; 0.5; 1" fill="freeze"></animate>
  </path>
  <path d="M2031.39 74.6464C1953.78 15.4073 1831.88 -61.0557 1726.37 -59.57C1680.14 -58.9169 1648.4 -41.1787 1618.74 -20.7304C1602.22 -9.35111 1584.23 3.45667 1564.02 16.9175C1533.75 37.072 1503.85 58.7367 1473.75 80.3768C1422.73 116.857 1361.89 160.423 1310.43 170.244C1274.41 177.125 1247.99 157.444 1270.87 154.987C1281.43 157.036 1299.59 172.652 1304.77 194.202C1309.87 215.426 1302.76 240.193 1287.89 261.343C1268.16 289.407 1238.83 311.456 1204.54 325.651C1146.28 349.781 1074.46 351.781 1006.61 323.888C888.77 275.726 802.53 300.917 781.99 332.598C780.12 335.479 779.93 338.639 780.49 341.202C782.7 351.324 788.36 354.687 792.66 356.124C802.56 359.43 817.08 353.552 792.26 333.284C791.76 331.651 790.4 329.398 788.1 326.729C784.38 314.272 764.36 301.048 724.1 303.799C694.02 305.856 652.8 315.896 623.24 346.606C612.99 357.226 604.58 369.234 597.4 382.392C536.46 494.454 297.56 641.323 -12.6401 459.043" stroke="url(#paint21_linear_585_8237)" stroke-width="0.5658" stroke-miterlimit="10" stroke-dasharray="0,0,0,2541.767578125">
    <animate attributeType="XML" attributeName="stroke-dasharray" repeatCount="1" dur="10s" values="0,0,0,2541.767578125;
          0,1270.8837890625,1270.8837890625,0;
          2541.767578125,0,0,0" keyTimes="0; 0.5; 1" fill="freeze"></animate>
  </path>
  <path d="M2030.46 68.7774C1951.59 10.5587 1827.44 -64.5003 1721.72 -59.6188C1675.31 -57.4719 1644.43 -37.6929 1615.82 -15.767C1599.94 -3.49796 1582.48 10.0037 1562.8 24.0277C1533.43 44.9659 1503.96 67.0876 1473.89 88.8339C1423.12 125.363 1360.78 168.276 1308 175.468C1271.06 180.505 1243.95 148.555 1269.14 152.783C1280.76 154.734 1300.96 168.334 1307.43 189.762C1313.82 210.912 1307.62 236.021 1293.44 257.555C1274.58 286.191 1245.9 308.893 1212.06 323.758C1154.34 349.112 1082.27 352.132 1014.03 324.149C894.33 275.326 807.88 306.403 791.06 338.9C789.46 341.986 789.63 345.243 790.51 347.887C794.06 358.442 800.79 361.634 806.12 362.458C818.24 364.328 833.11 353.895 803.73 332.182C802.67 330.402 800.76 328.068 797.92 325.374C791.86 312.844 770.2 301.326 729.59 305.766C699.62 309.048 659.2 320.256 629.62 351.063C619.41 361.675 610.89 373.625 603.51 386.694C540.92 497.956 279.8 639.111 -11.79 445.664" stroke="url(#paint22_linear_585_8237)" stroke-width="0.5658" stroke-miterlimit="10" stroke-dasharray="0,0,0,2569.756103515625">
    <animate attributeType="XML" attributeName="stroke-dasharray" repeatCount="1" dur="10s" values="0,0,0,2569.756103515625;
          0,1284.8780517578125,1284.8780517578125,0;
          2569.756103515625,0,0,0" keyTimes="0; 0.5; 1" fill="freeze"></animate>
  </path>
  <path d="M2029.52 62.9003C1949.39 5.69383 1822.98 -67.9448 1717.07 -59.6675C1670.48 -56.0268 1640.41 -34.2642 1612.89 -10.7955C1597.61 2.33064 1580.72 16.5506 1561.57 31.1543C1533.1 52.8679 1504.05 75.4549 1474.01 97.3074C1423.5 133.878 1359.65 176.154 1305.56 180.709C1267.7 183.909 1239.37 155.053 1267.4 150.587C1280.34 148.53 1302.31 164.024 1310.08 185.337C1317.76 206.414 1312.47 231.867 1298.97 253.784C1280.98 282.984 1252.95 306.354 1219.56 321.88C1162.39 348.467 1090.05 352.5 1021.42 324.419C899.87 274.935 813.35 311.889 800.11 345.202C798.8 348.5 799.3 351.847 800.52 354.565C805.42 365.528 813.29 368.181 819.57 368.777C833.91 370.132 844.95 357.773 815.19 331.056C813.27 329.325 811.11 326.713 807.73 323.995C799.33 311.391 776.02 301.554 735.07 307.709C705.2 312.199 665.59 324.582 636 355.487C625.82 366.091 617.19 377.985 609.62 390.964C545.38 501.426 262.03 636.867 -10.9399 432.253" stroke="url(#paint23_linear_585_8237)" stroke-width="0.5658" stroke-miterlimit="10" stroke-dasharray="0,0,0,2601.52783203125">
    <animate attributeType="XML" attributeName="stroke-dasharray" repeatCount="1" dur="10s" values="0,0,0,2601.52783203125;
          0,1300.763916015625,1300.763916015625,0;
          2601.52783203125,0,0,0" keyTimes="0; 0.5; 1" fill="freeze"></animate>
  </path>
  <path d="M2028.59 57.0223C1947.2 0.836226 1818.55 -71.382 1712.43 -59.7252C1665.66 -54.5825 1636.41 -30.8445 1609.98 -5.83296C1595.3 8.15029 1578.98 23.0886 1560.36 38.2637C1532.78 60.7447 1504.17 83.7971 1474.15 105.764C1423.89 142.375 1358.54 184.006 1303.13 185.925C1264.35 187.28 1235.38 155.517 1265.67 148.367C1279.8 145.028 1303.68 159.68 1312.74 180.88C1321.72 201.883 1317.34 227.678 1304.52 249.98C1287.41 279.742 1260.03 303.782 1227.07 319.97C1170.45 347.797 1097.85 352.834 1028.83 324.663C905.43 274.526 818.98 317.292 809.18 351.487C808.18 354.989 809 358.434 810.55 361.234C816.8 372.588 825.75 375.511 833.04 375.086C849.83 374.107 862.01 357.52 826.67 329.92C824.25 328.035 821.48 325.349 817.55 322.606C806.81 309.937 781.83 301.758 740.55 309.643C710.78 315.333 671.99 328.908 642.38 359.911C632.24 370.507 623.5 382.343 615.73 395.241C549.84 504.903 244.26 634.63 -10.0898 418.848" stroke="url(#paint24_linear_585_8237)" stroke-width="0.5658" stroke-miterlimit="10" stroke-dasharray="0,0,0,2638.970458984375">
    <animate attributeType="XML" attributeName="stroke-dasharray" repeatCount="1" dur="10s" values="0,0,0,2638.970458984375;
          0,1319.4852294921875,1319.4852294921875,0;
          2638.970458984375,0,0,0" keyTimes="0; 0.5; 1" fill="freeze"></animate>
  </path>
  <path d="M2027.65 51.1452C1945 -4.02054 1814.1 -74.8184 1707.77 -59.774C1660.83 -53.1293 1632.38 -27.4157 1607.05 -0.86959C1592.97 13.9708 1577.21 29.6274 1559.14 45.3739C1532.45 68.6303 1504.28 92.148 1474.29 114.221C1424.28 150.873 1357.44 191.859 1300.71 191.149C1261.01 190.659 1231.49 155.942 1263.95 146.163C1279.34 141.526 1305.05 155.362 1315.4 176.448C1325.67 197.369 1322.21 223.516 1310.07 246.201C1293.84 276.526 1267.11 301.236 1234.59 318.084C1178.52 347.145 1105.65 353.193 1036.24 324.925C910.98 274.126 824.72 322.647 818.25 357.789C817.57 361.487 818.7 365.021 820.57 367.919C828.16 379.65 838.24 382.458 846.5 381.421C865.68 379.005 878.78 357.348 838.14 328.81C835.22 326.753 831.84 324.011 827.37 321.235C814.28 308.493 787.62 301.962 746.04 311.603C716.34 318.484 678.39 333.259 648.76 364.352C638.65 374.94 629.81 386.719 621.84 399.527C554.3 508.389 226.5 632.401 -9.25 405.453" stroke="url(#paint25_linear_585_8237)" stroke-width="0.5658" stroke-miterlimit="10" stroke-dasharray="0,0,0,2680.009765625">
    <animate attributeType="XML" attributeName="stroke-dasharray" repeatCount="1" dur="10s" values="0,0,0,2680.009765625;
          0,1340.0048828125,1340.0048828125,0;
          2680.009765625,0,0,0" keyTimes="0; 0.5; 1" fill="freeze"></animate>
  </path>
  <path d="M2026.72 45.2761C1942.82 -8.87744 1809.68 -78.2386 1703.13 -59.8229C1656.02 -51.6762 1628.37 -23.979 1604.14 4.10181C1590.67 19.7993 1575.46 36.1744 1557.93 52.5004C1532.12 76.5242 1504.39 100.515 1474.43 122.694C1424.67 159.395 1356.33 199.729 1298.29 196.39C1257.67 194.063 1227.64 156.318 1262.23 143.967C1278.91 138.016 1306.43 151.044 1318.07 172.015C1329.64 192.864 1327.09 219.353 1315.63 242.421C1300.28 273.318 1274.2 298.689 1242.12 316.199C1186.61 346.5 1113.47 353.553 1043.67 325.194C916.56 273.743 830.57 327.904 827.34 364.091C826.99 367.977 828.41 371.609 830.62 374.597C839.55 386.686 850.78 389.388 859.99 387.739C881.58 383.878 895.41 357.226 849.64 327.692C846.2 325.472 842.23 322.664 837.21 319.864C821.78 307.048 793.42 302.158 751.54 313.554C721.91 321.619 684.8 337.602 655.16 368.793C645.09 379.372 636.13 391.094 627.97 403.812C558.78 511.875 208.75 630.165 -8.37988 392.058" stroke="url(#paint26_linear_585_8237)" stroke-width="0.5658" stroke-miterlimit="10" stroke-dasharray="0,0,0,2724.301513671875">
    <animate attributeType="XML" attributeName="stroke-dasharray" repeatCount="1" dur="10s" values="0,0,0,2724.301513671875;
          0,1362.1507568359375,1362.1507568359375,0;
          2724.301513671875,0,0,0" keyTimes="0; 0.5; 1" fill="freeze"></animate>
  </path>
  <path d="M2025.78 39.3989C1940.62 -13.7342 1805.25 -81.6669 1698.48 -59.8716C1651.2 -50.2229 1624.35 -20.5504 1601.21 9.07325C1588.34 25.6279 1573.69 42.7213 1556.7 59.6187C1531.77 84.4098 1504.49 108.874 1474.56 131.159C1425.05 167.901 1355.21 207.59 1295.85 201.623C1254.31 197.451 1223.8 156.644 1260.49 141.771C1278.48 134.474 1307.79 146.726 1320.72 167.591C1333.59 188.358 1331.95 215.19 1321.16 238.642C1306.7 270.102 1281.26 296.15 1249.62 314.313C1194.67 345.863 1121.25 353.912 1051.06 325.456C922.1 273.343 836.43 333.064 836.39 370.393C836.39 374.466 838.08 378.197 840.62 381.283C850.88 393.731 863.27 396.319 873.43 394.066C897.44 388.744 911.86 357.169 861.09 326.574C857.12 324.182 852.57 321.325 847.01 318.493C829.24 305.603 799.15 302.338 757.01 315.505C727.42 324.754 691.19 341.937 661.52 373.234C651.49 383.805 642.42 395.47 634.06 408.098C563.22 515.36 190.96 627.937 -7.5498 378.662" stroke="url(#paint27_linear_585_8237)" stroke-width="0.5658" stroke-miterlimit="10" stroke-dasharray="0,0,0,2771.6396484375">
    <animate attributeType="XML" attributeName="stroke-dasharray" repeatCount="1" dur="10s" values="0,0,0,2771.6396484375;
          0,1385.81982421875,1385.81982421875,0;
          2771.6396484375,0,0,0" keyTimes="0; 0.5; 1" fill="freeze"></animate>
  </path>
  <path d="M2024.85 33.5215C1938.43 -18.5994 1800.83 -85.0873 1693.83 -59.9289C1646.38 -48.77 1620.34 -17.1301 1598.29 14.0282C1586.02 31.4399 1571.93 49.2434 1555.48 66.7286C1531.43 92.2952 1504.59 117.225 1474.69 139.616C1425.43 176.399 1354.09 215.451 1293.42 206.847C1250.96 200.831 1219.99 156.922 1258.76 139.559C1278.07 130.906 1309.16 142.383 1323.38 163.142C1337.55 183.827 1336.82 211.01 1326.71 234.846C1313.13 266.87 1288.35 293.587 1257.14 312.419C1202.76 345.21 1129.06 354.263 1058.48 325.717C927.66 272.943 842.35 338.125 845.46 376.687C845.8 380.931 847.77 384.776 850.65 387.96C862.23 400.76 875.79 403.241 886.9 400.384C913.34 393.601 928.25 357.144 872.57 325.447C868.07 322.884 862.94 319.97 856.83 317.113C836.71 304.15 804.87 302.501 762.49 317.448C732.94 327.872 697.58 346.271 667.9 377.658C657.9 388.221 648.73 399.829 640.17 412.367C567.68 518.829 173.19 625.692 -6.7002 365.25" stroke="url(#paint28_linear_585_8237)" stroke-width="0.5658" stroke-miterlimit="10" stroke-dasharray="0,0,0,2821.849609375">
    <animate attributeType="XML" attributeName="stroke-dasharray" repeatCount="1" dur="10s" values="0,0,0,2821.849609375;
          0,1410.9248046875,1410.9248046875,0;
          2821.849609375,0,0,0" keyTimes="0; 0.5; 1" fill="freeze"></animate>
  </path>
  <path d="M2023.91 27.6522C1936.23 -23.4484 1796.41 -88.4995 1689.18 -59.9697C1641.56 -47.3007 1616.32 -13.6854 1595.37 19.0075C1583.7 37.2764 1570.16 55.7982 1554.26 73.8549C1531.08 100.189 1504.7 125.584 1474.83 148.089C1425.82 184.913 1352.98 223.32 1290.99 212.088C1247.61 204.235 1216.18 157.183 1257.03 137.363C1277.68 127.347 1310.53 138.065 1326.04 158.718C1341.51 179.313 1341.69 206.855 1332.26 231.075C1319.57 263.67 1295.44 291.057 1264.65 310.542C1210.85 344.582 1136.85 354.638 1065.88 325.986C933.21 272.559 848.26 343.096 854.52 382.997C855.21 387.413 857.45 391.372 860.67 394.653C873.56 407.796 888.3 410.171 900.36 406.727C929.23 398.466 944.58 357.185 884.04 324.345C879.01 321.619 873.3 318.64 866.65 315.758C844.19 302.722 810.58 302.689 767.98 319.423C738.44 331.023 703.99 350.638 674.28 382.123C664.32 392.678 655.03 404.229 646.28 416.677C572.14 522.339 155.43 623.488 -5.85986 351.871" stroke="url(#paint29_linear_585_8237)" stroke-width="0.5658" stroke-miterlimit="10" stroke-dasharray="0,0,0,2874.783203125">
    <animate attributeType="XML" attributeName="stroke-dasharray" repeatCount="1" dur="10s" values="0,0,0,2874.783203125;
          0,1437.3916015625,1437.3916015625,0;
          2874.783203125,0,0,0" keyTimes="0; 0.5; 1" fill="freeze"></animate>
  </path>
  <path d="M2022.98 21.7749C1934.04 -28.3052 1792.01 -91.9116 1684.53 -60.0268C1636.75 -45.8476 1612.3 -10.265 1592.45 23.9707C1581.39 43.0967 1568.39 62.3369 1553.04 80.9731C1530.72 108.074 1504.81 133.943 1474.96 156.555C1426.2 193.427 1351.87 231.181 1288.56 217.32C1244.26 207.622 1212.38 157.412 1255.31 135.167C1277.3 123.772 1311.91 133.739 1328.71 154.285C1345.48 174.799 1346.63 202.7 1337.82 227.295C1326.09 260.47 1302.54 288.518 1272.18 308.656C1218.96 343.945 1144.67 354.998 1073.31 326.247C938.79 272.159 854.2 347.986 863.61 389.299C864.65 393.87 867.15 397.951 870.71 401.331C884.9 414.816 900.84 417.086 913.84 413.045C945.14 403.315 960.87 357.226 895.53 323.219C889.96 320.321 883.68 317.284 876.48 314.378C851.68 301.269 816.28 302.852 773.48 321.366C743.95 334.141 710.4 354.965 680.68 386.548C670.75 397.086 661.36 408.588 652.41 420.955C576.62 525.817 137.68 621.251 -4.99023 338.468" stroke="url(#paint30_linear_585_8237)" stroke-width="0.5658" stroke-miterlimit="10" stroke-dasharray="0,0,0,2930.2529296875">
    <animate attributeType="XML" attributeName="stroke-dasharray" repeatCount="1" dur="10s" values="0,0,0,2930.2529296875;
          0,1465.12646484375,1465.12646484375,0;
          2930.2529296875,0,0,0" keyTimes="0; 0.5; 1" fill="freeze"></animate>
  </path>
  <path d="M2022.04 15.8972C1931.84 -33.1707 1787.67 -95.2015 1679.88 -60.076C1631.97 -44.3295 1608.28 -6.83681 1589.52 28.9336C1579.06 48.9166 1566.6 68.8753 1551.82 88.0829C1530.36 115.96 1504.91 142.294 1475.1 165.011C1426.59 201.924 1350.76 239.033 1286.13 222.544C1240.91 211.002 1208.57 157.607 1253.58 132.955C1276.92 120.172 1313.32 129.38 1331.37 149.844C1349.47 170.244 1351.49 198.52 1343.36 223.507C1332.5 257.237 1309.63 285.971 1279.69 306.762C1227.05 343.308 1152.47 355.348 1080.71 326.508C944.33 271.759 860.08 352.801 872.67 395.592C874.06 400.318 876.83 404.531 880.73 408.008C896.22 421.836 913.36 424.024 927.3 419.363C961.05 408.196 977.11 357.291 907 322.1C900.89 319.031 894.04 315.937 886.3 313.007C859.15 299.823 821.95 303.015 778.96 323.317C749.42 337.267 716.79 359.307 687.06 390.988C677.17 401.518 667.67 412.955 658.52 425.24C581.08 529.302 119.91 619.014 -4.14014 325.072" stroke="url(#paint31_linear_585_8237)" stroke-width="0.5658" stroke-miterlimit="10" stroke-dasharray="0,0,0,2988.12255859375">
    <animate attributeType="XML" attributeName="stroke-dasharray" repeatCount="1" dur="10s" values="0,0,0,2988.12255859375;
          0,1494.061279296875,1494.061279296875,0;
          2988.12255859375,0,0,0" keyTimes="0; 0.5; 1" fill="freeze"></animate>
  </path>
  <path d="M2021.11 10.02C1929.65 -38.0276 1783.25 -98.6789 1675.24 -60.1331C1627.16 -42.9091 1604.28 -3.41636 1586.61 33.8968C1576.75 54.737 1564.8 75.3976 1550.61 95.1929C1529.97 123.821 1505.03 150.644 1475.24 173.468C1426.98 210.422 1349.65 246.895 1283.71 227.76C1237.57 214.373 1204.78 157.779 1251.86 130.735C1276.54 116.556 1314.68 125.037 1334.04 145.387C1353.42 165.713 1356.36 194.325 1348.92 219.704C1338.93 253.988 1316.77 283.432 1287.22 304.852C1235.22 342.696 1160.28 355.683 1088.14 326.745C949.91 271.343 865.97 357.536 881.76 401.87C883.5 406.743 886.53 411.086 890.77 414.669C907.56 428.84 925.89 430.905 940.78 425.665C976.95 412.988 993.35 357.365 918.48 320.958C911.83 317.725 904.41 314.566 896.12 311.611C866.63 298.362 827.6 303.162 784.45 325.243C754.88 340.369 723.2 363.626 693.44 395.404C683.58 405.927 673.97 417.306 664.63 429.501C585.54 532.772 102.15 616.761 -3.29004 311.652" stroke="url(#paint32_linear_585_8237)" stroke-width="0.5658" stroke-miterlimit="10" stroke-dasharray="0,0,0,3048.288818359375">
    <animate attributeType="XML" attributeName="stroke-dasharray" repeatCount="1" dur="10s" values="0,0,0,3048.288818359375;
          0,1524.1444091796875,1524.1444091796875,0;
          3048.288818359375,0,0,0" keyTimes="0; 0.5; 1" fill="freeze"></animate>
  </path>
  <path d="M2020.17 4.15047C1927.45 -42.8767 1778.82 -102.148 1670.58 -60.1741C1622.33 -41.4644 1600.25 0.028171 1583.68 38.876C1561.05 91.9193 1525.72 143.142 1475.36 181.949C1427.36 218.944 1348.52 254.772 1281.26 233.009C1234.2 217.785 1200.95 157.974 1250.11 128.555C1276.14 112.972 1316.01 120.735 1336.68 140.979C1357.35 161.223 1361.19 190.178 1354.45 215.948C1329.2 312.394 1209.1 372.482 1095.53 327.031C940.14 264.845 854.19 383.976 900.78 421.371C966.85 474.406 1052.47 359.74 905.94 310.264C845.18 284.828 751.48 331.341 670.74 433.811C590 536.282 84.3798 614.557 -2.4502 298.281" stroke="url(#paint33_linear_585_8237)" stroke-width="0.5658" stroke-miterlimit="10" stroke-dasharray="0,0,0,3110.62939453125">
    <animate attributeType="XML" attributeName="stroke-dasharray" repeatCount="1" dur="10s" values="0,0,0,3110.62939453125;
          0,1555.314697265625,1555.314697265625,0;
          3110.62939453125,0,0,0" keyTimes="0; 0.5; 1" fill="freeze"></animate>
  </path>
  <path d="M2017.39 -0.56731C1927.67 -46.0762 1783.69 -99.1521 1676.78 -55.0473C1629.81 -35.6683 1607.76 5.24468 1591.13 43.8476C1568.43 96.5236 1533.28 147.387 1483.41 186.096C1435.74 223.116 1358.04 258.821 1291.3 238.487C1244.56 224.275 1211.07 166.75 1257.19 138.416C1267.65 131.984 1280.56 129.69 1293.41 130.719C1310.54 132.065 1327.53 139.29 1338.43 150.44C1357.64 169.975 1360.4 197.908 1353.09 222.822C1325.74 315.954 1206.68 374.932 1093.89 331.749C941.1 273.253 855.77 389.47 899.34 427.183C960.97 480.537 1042.78 369.952 898.86 322.795C837.68 298.999 746.04 345.365 663.55 443.615C579.41 543.816 80.7399 615.308 -3.62012 302.713" stroke="url(#paint34_linear_585_8237)" stroke-width="0.5658" stroke-miterlimit="10" stroke-dasharray="0,0,0,3057.296630859375">
    <animate attributeType="XML" attributeName="stroke-dasharray" repeatCount="1" dur="10s" values="0,0,0,3057.296630859375;
          0,1528.6483154296875,1528.6483154296875,0;
          3057.296630859375,0,0,0" keyTimes="0; 0.5; 1" fill="freeze"></animate>
  </path>
  <path d="M2014.61 -5.27773C1927.88 -49.2764 1788.58 -96.1894 1682.98 -49.905C1637.3 -29.8811 1615.28 10.485 1598.57 48.843C1575.8 101.152 1540.83 151.664 1491.44 190.259C1444.11 227.295 1367.53 262.878 1301.31 243.972C1254.9 230.772 1221.17 175.533 1264.25 148.293C1274 142.106 1286.12 139.918 1298.16 140.914C1314.24 142.212 1330.12 149.191 1340.17 159.917C1357.86 178.79 1359.6 205.638 1351.71 229.711C1322.27 319.513 1204.28 377.397 1092.24 336.483C942.11 281.661 857.3 394.931 897.89 433.011C955.04 486.626 1033.08 380.172 891.77 335.349C830.17 313.186 740.43 359.413 656.34 453.435C568.68 551.449 77.0902 616.075 -4.81982 307.17" stroke="url(#paint35_linear_585_8237)" stroke-width="0.5658" stroke-miterlimit="10" stroke-dasharray="0,0,0,3004.8603515625">
    <animate attributeType="XML" attributeName="stroke-dasharray" repeatCount="1" dur="10s" values="0,0,0,3004.8603515625;
          0,1502.43017578125,1502.43017578125,0;
          3004.8603515625,0,0,0" keyTimes="0; 0.5; 1" fill="freeze"></animate>
  </path>
  <path d="M2011.84 -9.99545C1928.1 -52.4758 1793.51 -93.2746 1689.19 -44.7781C1644.79 -24.1338 1622.81 15.71 1606.03 53.8231C1583.18 105.764 1548.4 155.926 1499.49 194.407C1452.5 231.467 1377.05 266.927 1311.34 249.442C1265.25 237.254 1231.28 184.301 1271.32 158.155C1280.36 152.22 1291.68 150.13 1302.92 151.102C1317.95 152.359 1332.75 159.077 1341.92 169.379C1358.12 187.566 1358.82 213.353 1350.35 236.585C1318.83 323.048 1201.94 379.854 1090.6 341.202C943.17 290.028 858.79 400.319 896.46 438.832C949.09 492.643 1023.41 390.393 884.7 347.888C822.67 327.366 734.67 373.438 649.16 463.248C557.85 559.147 73.4598 616.827 -5.99023 311.611" stroke="url(#paint36_linear_585_8237)" stroke-width="0.5658" stroke-miterlimit="10" stroke-dasharray="0,0,0,2953.4560546875">
    <animate attributeType="XML" attributeName="stroke-dasharray" repeatCount="1" dur="10s" values="0,0,0,2953.4560546875;
          0,1476.72802734375,1476.72802734375,0;
          2953.4560546875,0,0,0" keyTimes="0; 0.5; 1" fill="freeze"></animate>
  </path>
  <path d="M2009.06 -14.7139C1928.31 -55.676 1798.44 -90.4096 1695.39 -39.6437C1652.27 -18.4035 1630.32 20.9422 1613.48 58.8023C1590.56 110.376 1555.96 160.179 1507.53 198.561C1460.88 235.638 1386.55 270.984 1321.36 254.919C1275.6 243.744 1241.38 193.076 1278.39 168.024C1286.72 162.334 1297.24 160.342 1307.68 161.289C1321.67 162.497 1335.37 168.962 1343.67 178.84C1358.38 196.341 1358.04 221.059 1348.98 243.458C1315.4 326.558 1199.63 382.303 1088.95 345.92C944.28 298.363 860.22 405.641 895.01 444.644C943.11 498.569 1013.71 400.604 877.61 360.426C815.16 341.545 728.72 387.446 641.95 473.051C546.85 566.893 69.8101 617.578 -7.18994 316.044" stroke="url(#paint37_linear_585_8237)" stroke-width="0.5658" stroke-miterlimit="10" stroke-dasharray="0,0,0,2903.095947265625">
    <animate attributeType="XML" attributeName="stroke-dasharray" repeatCount="1" dur="10s" values="0,0,0,2903.095947265625;
          0,1451.5479736328125,1451.5479736328125,0;
          2903.095947265625,0,0,0" keyTimes="0; 0.5; 1" fill="freeze"></animate>
  </path>
  <path d="M2006.28 -19.4241C1928.52 -58.8678 1803.38 -87.5771 1701.59 -34.5093C1659.75 -12.6977 1637.84 26.1665 1620.93 63.7898C1597.94 114.988 1563.51 164.448 1515.58 202.716C1469.27 239.809 1396.07 275.041 1331.4 260.396C1285.96 250.233 1251.58 201.925 1285.47 177.884C1293.11 172.464 1302.82 170.554 1312.45 171.476C1325.39 172.636 1338 178.839 1345.44 188.309C1358.65 205.124 1357.28 228.773 1347.64 250.339C1312.02 330.059 1197.39 384.752 1087.34 350.638C945.48 306.672 861.66 410.89 893.61 450.456C937.17 504.405 1004.06 410.816 870.57 372.964C807.7 355.716 722.64 401.412 634.8 482.863C535.76 574.697 66.2099 618.337 -8.33008 320.492" stroke="url(#paint38_linear_585_8237)" stroke-width="0.5658" stroke-miterlimit="10" stroke-dasharray="0,0,0,2853.798828125">
    <animate attributeType="XML" attributeName="stroke-dasharray" repeatCount="1" dur="10s" values="0,0,0,2853.798828125;
          0,1426.8994140625,1426.8994140625,0;
          2853.798828125,0,0,0" keyTimes="0; 0.5; 1" fill="freeze"></animate>
  </path>
  <path d="M2003.5 -24.1422C1928.73 -62.0676 1808.34 -84.8016 1707.79 -29.3747C1667.23 -7.01616 1645.35 31.399 1628.37 68.7775C1605.31 119.609 1571.06 168.717 1523.61 206.871C1477.63 243.989 1405.56 279.098 1341.41 265.874C1296.3 256.723 1261.69 210.716 1292.53 187.754C1299.47 182.586 1308.37 180.766 1317.19 181.664C1329.09 182.774 1340.6 188.725 1347.17 197.77C1358.88 213.892 1356.49 236.47 1346.26 257.213C1308.62 333.537 1195.16 387.193 1085.68 355.357C946.68 314.942 863.03 416.065 892.15 456.268C931.18 510.144 994.36 421.028 863.48 385.495C800.19 369.887 716.33 415.339 627.59 492.667C524.46 582.534 62.55 619.088 -9.52002 324.925" stroke="url(#paint39_linear_585_8237)" stroke-width="0.5658" stroke-miterlimit="10" stroke-dasharray="0,0,0,2805.774658203125">
    <animate attributeType="XML" attributeName="stroke-dasharray" repeatCount="1" dur="10s" values="0,0,0,2805.774658203125;
          0,1402.8873291015625,1402.8873291015625,0;
          2805.774658203125,0,0,0" keyTimes="0; 0.5; 1" fill="freeze"></animate>
  </path>
  <path d="M2000.72 -28.8525C1928.94 -65.2595 1813.29 -82.0672 1714 -24.2403C1674.71 -1.35938 1652.88 36.6313 1635.83 73.7567C1612.69 124.221 1578.63 172.97 1531.66 211.018C1486.02 248.152 1415.11 283.032 1351.44 271.351C1306.67 263.131 1271.83 219.507 1299.6 197.622C1305.83 192.708 1313.93 190.986 1321.95 191.859C1332.8 192.921 1343.21 198.61 1348.92 207.247C1359.12 222.675 1355.72 244.176 1344.89 264.102C1305.26 337.014 1192.99 389.641 1084.04 360.091C947.96 323.186 864.39 421.167 890.71 462.096C925.24 515.793 984.67 431.256 856.4 398.049C792.69 384.082 709.86 429.232 620.4 502.487C513.03 590.411 58.9198 619.855 -10.7002 329.374" stroke="url(#paint40_linear_585_8237)" stroke-width="0.5658" stroke-miterlimit="10" stroke-dasharray="0,0,0,2758.9970703125">
    <animate attributeType="XML" attributeName="stroke-dasharray" repeatCount="1" dur="10s" values="0,0,0,2758.9970703125;
          0,1379.49853515625,1379.49853515625,0;
          2758.9970703125,0,0,0" keyTimes="0; 0.5; 1" fill="freeze"></animate>
  </path>
  <path d="M1995.16 -38.2806C1929.36 -71.6592 1823.18 -76.7447 1726.4 -13.9711C1689.62 9.88129 1667.91 47.0883 1650.73 83.7321C1627.45 133.461 1593.75 181.509 1547.75 219.336C1502.79 256.511 1434.13 291.13 1371.49 282.314C1327.37 276.102 1292.1 237.099 1313.74 217.361C1318.57 212.953 1325.06 211.418 1331.47 212.243C1340.23 213.214 1348.43 218.373 1352.42 226.185C1359.59 240.217 1354.22 259.556 1342.17 277.865C1298.68 343.904 1188.8 394.474 1080.76 369.544C950.69 339.529 867.14 431.101 887.84 473.745C913.58 526.756 965.3 451.705 842.25 423.142C777.7 412.449 696.41 456.815 606.02 522.119C489.7 606.157 51.6499 621.373 -13.0601 338.272" stroke="url(#paint41_linear_585_8237)" stroke-width="0.5658" stroke-miterlimit="10" stroke-dasharray="0,0,0,2670.08642578125">
    <animate attributeType="XML" attributeName="stroke-dasharray" repeatCount="1" dur="10s" values="0,0,0,2670.08642578125;
          0,1335.043212890625,1335.043212890625,0;
          2670.08642578125,0,0,0" keyTimes="0; 0.5; 1" fill="freeze"></animate>
  </path>
  <path d="M1992.38 -42.9986C1929.57 -74.8589 1828.1 -74.165 1732.6 -8.84447C1697.06 15.465 1675.43 52.3129 1658.18 88.7036C1634.83 138.057 1601.31 185.754 1555.79 223.475C1511.17 260.666 1443.63 295.163 1381.52 287.775C1337.73 282.567 1302.25 245.874 1320.82 227.214C1324.95 223.059 1330.63 221.622 1336.24 222.422C1343.96 223.344 1351.04 228.234 1354.18 235.638C1359.82 248.968 1353.5 267.221 1340.81 284.73C1295.45 347.316 1186.78 396.85 1079.13 374.254C952.15 347.602 868.57 435.926 886.41 479.549C907.89 532.054 955.63 461.909 835.18 435.665C770.21 426.612 689.45 470.472 598.83 531.915C477.8 613.978 48.01 622.116 -14.23 342.696" stroke="url(#paint42_linear_585_8237)" stroke-width="0.5658" stroke-miterlimit="10" stroke-dasharray="0,0,0,2628.15771484375">
    <animate attributeType="XML" attributeName="stroke-dasharray" repeatCount="1" dur="10s" values="0,0,0,2628.15771484375;
          0,1314.078857421875,1314.078857421875,0;
          2628.15771484375,0,0,0" keyTimes="0; 0.5; 1" fill="freeze"></animate>
  </path>
  <path d="M1989.6 -47.7087C1929.78 -78.0507 1833 -71.6265 1738.8 -3.70197C1704.49 21.0402 1682.94 57.5534 1665.62 93.6993C1642.19 142.686 1608.86 190.031 1563.82 227.646C1519.53 264.861 1453.12 299.22 1391.53 293.269C1348.06 289.073 1312.4 254.682 1327.87 237.091C1331.3 233.189 1336.17 231.85 1340.98 232.618C1347.65 233.491 1353.62 238.103 1355.91 245.115C1360.02 257.727 1352.76 274.91 1339.43 291.62C1292.25 350.753 1184.78 399.217 1077.47 378.981C953.63 355.626 870.03 440.685 884.96 485.369C902.3 537.27 945.93 472.129 828.09 448.211C762.7 440.799 682.32 484.071 591.63 541.735C465.74 621.773 44.3701 622.884 -15.4199 347.145" stroke="url(#paint43_linear_585_8237)" stroke-width="0.5658" stroke-miterlimit="10" stroke-dasharray="0,0,0,2588.234375">
    <animate attributeType="XML" attributeName="stroke-dasharray" repeatCount="1" dur="10s" values="0,0,0,2588.234375;
          0,1294.1171875,1294.1171875,0;
          2588.234375,0,0,0" keyTimes="0; 0.5; 1" fill="freeze"></animate>
  </path>
  <path d="M1984.05 -57.1373C1930.22 -84.4426 1842.72 -66.6961 1751.21 6.567C1719.3 32.1091 1697.98 68.0182 1680.53 103.666C1656.96 151.918 1623.98 198.553 1579.92 235.948C1536.31 273.204 1472.14 307.309 1411.59 304.224C1368.77 302.036 1332.75 272.233 1342.02 256.829C1344.07 253.425 1347.31 252.282 1350.5 253.001C1355.08 253.776 1358.82 257.808 1359.41 264.053C1360.46 275.179 1351.36 290.265 1336.7 305.383C1286.05 357.601 1180.97 403.845 1074.19 388.433C956.8 371.487 873.24 449.999 882.09 497.018C891.59 547.49 926.57 492.577 813.94 473.304C747.71 469.166 667.7 510.993 577.25 561.367C441.18 637.152 37.0897 624.402 -17.7803 356.042" stroke="url(#paint44_linear_585_8237)" stroke-width="0.5658" stroke-miterlimit="10" stroke-dasharray="0,0,0,2515.45849609375">
    <animate attributeType="XML" attributeName="stroke-dasharray" repeatCount="1" dur="10s" values="0,0,0,2515.45849609375;
          0,1257.729248046875,1257.729248046875,0;
          2515.45849609375,0,0,0" keyTimes="0; 0.5; 1" fill="freeze"></animate>
  </path>
  <path d="M1981.27 -61.8557C1930.43 -87.6426 1847.51 -64.3046 1757.41 11.6932C1726.68 37.6108 1705.5 73.2342 1687.98 108.645C1664.34 156.53 1631.54 202.814 1587.96 240.103C1544.69 277.375 1481.64 311.358 1421.62 309.701C1379.12 308.525 1342.95 280.991 1349.09 266.69C1350.45 263.531 1352.87 262.494 1355.26 263.188C1358.79 263.914 1361.43 267.637 1361.16 273.514C1360.69 283.865 1350.69 297.938 1335.34 312.256C1283.05 361.03 1179.13 406.09 1072.56 393.151C958.46 379.299 875.02 454.578 880.66 502.83C886.46 552.502 916.89 502.781 806.88 485.842C740.23 483.345 660.23 524.307 570.07 571.179C428.69 644.679 33.4698 625.161 -18.9502 360.483" stroke="url(#paint45_linear_585_8237)" stroke-width="0.5658" stroke-miterlimit="10" stroke-dasharray="0,0,0,2483.46923828125">
    <animate attributeType="XML" attributeName="stroke-dasharray" repeatCount="1" dur="10s" values="0,0,0,2483.46923828125;
          0,1241.734619140625,1241.734619140625,0;
          2483.46923828125,0,0,0" keyTimes="0; 0.5; 1" fill="freeze"></animate>
  </path>
  <path d="M1978.49 -66.5656C1930.64 -90.8425 1852.25 -61.9453 1763.61 16.836C1734.04 43.1128 1713.02 78.475 1695.43 113.641C1671.71 161.15 1639.1 207.092 1596 244.266C1553.07 281.563 1491.14 315.423 1431.64 315.186C1389.46 315.023 1353.14 289.726 1356.16 276.567C1356.83 273.645 1358.43 272.714 1360.02 273.384C1362.51 274.069 1364.05 277.465 1362.91 282.983C1360.94 292.542 1350.03 305.619 1333.97 319.137C1280.1 364.483 1177.32 408.294 1070.91 397.878C960.15 387.037 876.93 459.141 879.21 508.65C881.47 557.498 907.19 513.001 799.79 498.381C732.72 497.516 652.63 537.514 562.87 580.983C416.06 652.082 29.8201 625.912 -20.1299 364.924" stroke="url(#paint46_linear_585_8237)" stroke-width="0.5658" stroke-miterlimit="10" stroke-dasharray="0,0,0,2455.467529296875">
    <animate attributeType="XML" attributeName="stroke-dasharray" repeatCount="1" dur="10s" values="0,0,0,2455.467529296875;
          0,1227.7337646484375,1227.7337646484375,0;
          2455.467529296875,0,0,0" keyTimes="0; 0.5; 1" fill="freeze"></animate>
  </path>
  <path d="M1975.71 -71.2837C1930.85 -94.0422 1856.94 -59.6432 1769.81 21.9625C1741.39 48.5822 1720.53 83.6995 1702.87 118.621C1679.08 165.762 1646.65 211.345 1604.04 248.413C1561.44 285.726 1500.64 319.472 1441.66 320.656C1399.8 321.505 1363.32 298.403 1363.22 286.428C1363.2 283.734 1363.99 282.926 1364.77 283.571C1366.21 284.208 1366.68 287.269 1364.65 292.452C1361.23 301.211 1349.38 313.309 1332.6 326.019C1277.21 367.969 1175.55 410.433 1069.26 402.604C961.87 394.694 878.97 463.705 877.77 514.47C876.63 562.493 897.51 523.221 792.71 510.928C725.22 511.703 644.96 550.641 555.67 590.803C403.29 659.348 26.1802 626.679 -21.3198 369.373" stroke="url(#paint47_linear_585_8237)" stroke-width="0.5658" stroke-miterlimit="10" stroke-dasharray="0,0,0,2433.093994140625">
    <animate attributeType="XML" attributeName="stroke-dasharray" repeatCount="1" dur="10s" values="0,0,0,2433.093994140625;
          0,1216.5469970703125,1216.5469970703125,0;
          2433.093994140625,0,0,0" keyTimes="0; 0.5; 1" fill="freeze"></animate>
  </path>
  <path d="M1972.93 -75.9937C1931.06 -97.2339 1861.57 -57.3658 1776.01 27.1052C1748.71 54.0595 1728.05 88.9402 1710.32 123.609C1686.46 170.383 1654.21 215.614 1612.08 252.568C1569.82 289.897 1510.14 323.521 1451.68 326.141C1410.14 328.002 1373.44 307.064 1370.29 296.297C1369.57 293.824 1369.55 293.146 1369.53 293.759C1369.93 294.346 1369.34 297.081 1366.4 301.913C1361.57 309.864 1348.75 321.007 1331.24 332.892C1274.38 371.479 1173.82 412.498 1067.63 407.314C963.65 402.245 881.2 468.259 876.34 520.282C871.93 567.489 887.83 533.433 785.64 523.466C717.73 525.882 637.23 563.653 548.49 600.607C390.44 666.425 22.5498 627.43 -22.4902 373.805" stroke="url(#paint48_linear_585_8237)" stroke-width="0.5658" stroke-miterlimit="10" stroke-dasharray="0,0,0,2416.29638671875">
    <animate attributeType="XML" attributeName="stroke-dasharray" repeatCount="1" dur="10s" values="0,0,0,2416.29638671875;
          0,1208.148193359375,1208.148193359375,0;
          2416.29638671875,0,0,0" keyTimes="0; 0.5; 1" fill="freeze"></animate>
  </path>
  <path d="M1970.15 -80.7121C1931.27 -100.434 1866.13 -55.1374 1782.21 32.2314C1756.02 59.5041 1735.56 94.1561 1717.77 128.588C1693.83 174.995 1661.77 219.875 1620.12 256.723C1578.2 294.077 1519.64 327.578 1461.7 331.618C1420.48 334.492 1383.47 315.709 1377.35 306.166C1375.9 303.913 1375.1 303.358 1374.27 303.954C1373.62 304.493 1372.01 306.909 1368.13 311.39C1361.94 318.549 1348.12 328.721 1329.85 339.773C1271.58 375.038 1172.09 414.489 1065.96 412.041C965.41 409.722 883.53 472.871 874.87 526.102C867.32 572.534 878.11 543.653 778.53 536.004C710.2 540.053 629.41 576.574 541.27 610.418C377.44 673.323 18.8898 628.181 -23.7002 378.254" stroke="url(#paint49_linear_585_8237)" stroke-width="0.5658" stroke-miterlimit="10" stroke-dasharray="0,0,0,2406.286865234375">
    <animate attributeType="XML" attributeName="stroke-dasharray" repeatCount="1" dur="10s" values="0,0,0,2406.286865234375;
          0,1203.1434326171875,1203.1434326171875,0;
          2406.286865234375,0,0,0" keyTimes="0; 0.5; 1" fill="freeze"></animate>
  </path>
  <path d="M1967.37 -85.4219C1931.48 -103.625 1870.62 -52.9412 1788.41 37.3745C1763.3 64.9573 1743.08 99.3971 1725.22 133.584C1701.21 179.623 1669.33 224.144 1628.17 260.886C1586.59 298.256 1529.15 331.651 1471.74 337.104C1430.84 340.99 1393.46 324.411 1384.44 316.044C1382.26 314.019 1380.69 313.587 1379.05 314.15C1377.36 314.64 1374.74 316.754 1369.91 320.86C1362.38 327.26 1347.55 336.451 1328.52 346.655C1268.88 378.646 1170.43 416.4 1064.36 416.767C967.25 417.102 886.09 477.541 873.48 531.923C862.88 577.628 868.48 553.873 771.5 548.551C702.75 554.241 621.64 589.399 534.12 620.239C364.43 680.025 15.2902 628.949 -24.8398 382.703" stroke="url(#paint50_linear_585_8237)" stroke-width="0.5658" stroke-miterlimit="10" stroke-dasharray="0,0,0,2400.82958984375">
    <animate attributeType="XML" attributeName="stroke-dasharray" repeatCount="1" dur="10s" values="0,0,0,2400.82958984375;
          0,1200.414794921875,1200.414794921875,0;
          2400.82958984375,0,0,0" keyTimes="0; 0.5; 1" fill="freeze"></animate>
  </path>
  <path d="M1964.6 -90.1402C1931.7 -106.825 1875.05 -50.778 1794.62 42.5009C1770.57 70.3858 1750.61 104.621 1732.67 138.555C1708.59 184.219 1676.89 228.397 1636.21 265.025C1594.97 302.42 1538.65 335.692 1481.76 342.565C1441.18 347.471 1403.42 333.145 1391.5 325.888C1388.57 324.109 1386.24 323.782 1383.8 324.321C1381.06 324.762 1377.45 326.599 1371.65 330.313C1362.79 335.986 1346.96 344.182 1327.15 353.52C1266.17 382.287 1168.73 418.188 1062.71 421.477C969.04 424.383 888.74 482.259 872.03 537.727C858.47 582.762 858.78 564.077 764.41 561.073C695.24 568.404 613.79 602.117 526.92 630.026C351.29 686.457 11.64 629.683 -26.02 387.119" stroke="url(#paint51_linear_585_8237)" stroke-width="0.5658" stroke-miterlimit="10" stroke-dasharray="0,0,0,2398.799072265625">
    <animate attributeType="XML" attributeName="stroke-dasharray" repeatCount="1" dur="10s" values="0,0,0,2398.799072265625;
          0,1199.3995361328125,1199.3995361328125,0;
          2398.799072265625,0,0,0" keyTimes="0; 0.5; 1" fill="freeze"></animate>
  </path>
  <path d="M1961.82 -94.8503C1931.91 -110.017 1879.38 -48.6395 1800.82 47.6434C1777.82 75.8303 1758.12 109.862 1740.12 143.551C1715.97 188.847 1684.44 232.675 1644.25 269.196C1603.34 306.607 1548.15 339.773 1491.78 348.059C1451.53 353.977 1413.4 341.961 1398.57 335.774C1394.91 334.247 1391.8 334.01 1388.56 334.533C1384.78 334.925 1380.17 336.5 1373.4 339.798C1363.21 344.769 1346.38 351.961 1325.78 360.418C1263.47 386.017 1167.02 419.902 1061.06 426.22C970.83 431.591 891.52 487.092 870.59 543.563C854.12 587.995 849.09 574.313 757.33 573.636C687.74 582.607 605.94 614.778 519.72 639.863C338.11 692.702 8.00004 630.467 -27.21 391.592" stroke="url(#paint52_linear_585_8237)" stroke-width="0.5658" stroke-miterlimit="10" stroke-dasharray="0,0,0,2399.64013671875">
    <animate attributeType="XML" attributeName="stroke-dasharray" repeatCount="1" dur="10s" values="0,0,0,2399.64013671875;
          0,1199.820068359375,1199.820068359375,0;
          2399.64013671875,0,0,0" keyTimes="0; 0.5; 1" fill="freeze"></animate>
  </path>
  <path d="M1959.04 -99.5686C1932.12 -113.225 1883.64 -46.5253 1807.02 52.7697C1785.04 81.2505 1765.64 115.078 1747.57 148.53C1723.34 193.459 1692 236.927 1652.29 273.343C1611.72 310.778 1557.65 343.83 1501.8 353.536C1461.87 360.475 1423.42 350.769 1405.63 345.643C1401.24 344.377 1397.35 344.23 1393.31 344.72C1388.48 345.071 1382.86 346.394 1375.14 349.267C1363.59 353.561 1345.79 359.74 1324.41 367.299C1260.78 389.788 1165.28 421.485 1059.42 430.938C972.6 438.693 894.41 491.997 869.15 549.384C849.82 593.292 839.41 584.533 750.26 586.182C680.25 596.786 598.11 627.332 512.54 649.674C324.91 698.661 4.37012 631.226 -28.3799 396.033" stroke="url(#paint53_linear_585_8237)" stroke-width="0.5658" stroke-miterlimit="10" stroke-dasharray="0,0,0,2403.012451171875">
    <animate attributeType="XML" attributeName="stroke-dasharray" repeatCount="1" dur="10s" values="0,0,0,2403.012451171875;
          0,1201.5062255859375,1201.5062255859375,0;
          2403.012451171875,0,0,0" keyTimes="0; 0.5; 1" fill="freeze"></animate>
  </path>
  <path d="M1956.26 -104.287C1932.33 -116.425 1887.81 -44.4353 1813.22 57.8964C1792.25 86.671 1773.15 120.303 1755.02 153.502C1730.72 198.064 1699.56 241.181 1660.34 277.482C1620.11 314.934 1567.16 347.88 1511.84 358.998C1472.23 366.957 1433.49 359.577 1412.72 355.487C1407.61 354.483 1402.94 354.426 1398.09 354.892C1392.22 355.194 1385.57 356.279 1376.91 358.712C1363.99 362.344 1345.23 367.528 1323.07 374.156C1258.11 393.592 1163.53 422.906 1057.8 435.64C974.36 445.689 897.41 496.977 867.73 555.179C845.57 598.639 829.74 594.729 743.2 598.697C672.77 610.941 590.32 639.781 505.36 659.462C311.71 704.326 0.750195 631.953 -29.5498 400.449" stroke="url(#paint54_linear_585_8237)" stroke-width="0.5658" stroke-miterlimit="10" stroke-dasharray="0,0,0,2408.70166015625">
    <animate attributeType="XML" attributeName="stroke-dasharray" repeatCount="1" dur="10s" values="0,0,0,2408.70166015625;
          0,1204.350830078125,1204.350830078125,0;
          2408.70166015625,0,0,0" keyTimes="0; 0.5; 1" fill="freeze"></animate>
  </path>
  <path d="M1953.48 -108.997C1932.54 -119.617 1891.9 -42.3541 1819.42 63.0387C1799.43 92.0991 1780.67 125.543 1762.47 158.497C1738.1 202.692 1707.12 245.458 1668.38 281.653C1628.49 319.121 1576.67 351.961 1521.86 364.491C1482.58 373.47 1443.56 368.409 1419.78 365.373C1413.95 364.63 1408.49 364.654 1402.83 365.095C1395.91 365.348 1388.23 366.197 1378.64 368.197C1364.32 371.168 1344.63 375.364 1321.68 381.054C1255.37 397.494 1161.67 424.236 1056.14 440.383C976.03 452.643 900.43 502.103 866.28 561.016C841.3 604.108 820.04 604.966 736.11 611.259C665.25 625.145 582.54 652.197 498.16 669.298C298.5 709.754 -2.89998 632.736 -30.73 404.922" stroke="url(#paint55_linear_585_8237)" stroke-width="0.5658" stroke-miterlimit="10" stroke-dasharray="0,0,0,2416.61279296875">
    <animate attributeType="XML" attributeName="stroke-dasharray" repeatCount="1" dur="10s" values="0,0,0,2416.61279296875;
          0,1208.306396484375,1208.306396484375,0;
          2416.61279296875,0,0,0" keyTimes="0; 0.5; 1" fill="freeze"></animate>
  </path>
  <path d="M1950.7 -113.715C1932.76 -122.817 1895.89 -40.2886 1825.62 68.1653C1806.6 97.5196 1788.18 130.768 1769.91 163.477C1745.47 207.296 1714.67 249.711 1676.41 285.8C1636.85 323.292 1586.16 356.026 1531.87 369.96C1492.91 379.96 1453.63 377.217 1426.84 375.234C1420.3 374.752 1414.04 374.866 1407.58 375.283C1399.61 375.487 1390.89 376.107 1380.38 377.658C1364.65 379.977 1344.03 383.201 1320.31 387.927C1252.62 401.413 1159.74 425.387 1054.49 445.101C977.64 459.493 903.51 507.295 864.83 566.828C837.02 609.627 810.35 615.178 729.02 623.79C657.74 639.308 574.8 664.507 490.95 679.094C285.31 714.865 -6.55018 633.479 -31.9302 409.347" stroke="url(#paint56_linear_585_8237)" stroke-width="0.5658" stroke-miterlimit="10" stroke-dasharray="0,0,0,2426.60205078125">
    <animate attributeType="XML" attributeName="stroke-dasharray" repeatCount="1" dur="10s" values="0,0,0,2426.60205078125;
          0,1213.301025390625,1213.301025390625,0;
          2426.60205078125,0,0,0" keyTimes="0; 0.5; 1" fill="freeze"></animate>
  </path>
  <path d="M1947.92 -118.425C1932.97 -126.008 1899.8 -38.2233 1831.82 73.3081C1813.75 102.956 1795.7 136 1777.36 168.464C1752.84 211.916 1722.23 253.98 1684.46 289.955C1645.24 327.464 1595.68 360.1 1541.9 375.438C1503.27 386.458 1463.72 386.034 1433.91 385.095C1426.66 384.866 1419.61 385.078 1412.34 385.462C1403.33 385.617 1393.56 386.009 1382.13 387.119C1364.98 388.784 1343.43 391.054 1318.95 394.801C1249.84 405.372 1157.71 426.392 1052.86 449.819C979.2 466.276 906.64 512.585 863.4 572.64C832.75 615.219 800.67 625.382 721.95 636.328C650.25 653.487 567.15 676.768 483.77 688.906C272.22 719.697 -10.1801 634.238 -33.1001 413.788" stroke="url(#paint57_linear_585_8237)" stroke-width="0.5658" stroke-miterlimit="10" stroke-dasharray="0,0,0,2438.57177734375">
    <animate attributeType="XML" attributeName="stroke-dasharray" repeatCount="1" dur="10s" values="0,0,0,2438.57177734375;
          0,1219.285888671875,1219.285888671875,0;
          2438.57177734375,0,0,0" keyTimes="0; 0.5; 1" fill="freeze"></animate>
  </path>
  <path d="M1945.14 -123.143C1933.18 -129.208 1903.62 -36.1662 1838.02 78.4344C1820.88 108.385 1803.22 141.224 1784.81 173.444C1760.22 216.528 1729.79 258.241 1692.5 294.102C1653.62 331.635 1605.22 364.23 1551.92 380.915C1513.64 393.013 1473.82 394.841 1440.98 394.964C1433.01 394.996 1425.17 395.29 1417.1 395.658C1407.04 395.764 1396.21 395.919 1383.88 396.588C1365.29 397.592 1342.81 398.931 1317.58 401.682C1247 409.372 1155.53 427.24 1051.21 454.546C980.63 473.019 909.76 517.956 861.96 578.469C828.45 620.892 790.98 635.61 714.87 648.883C642.75 667.682 559.56 688.98 476.57 698.734C259.2 724.268 -13.83 635.014 -34.29 418.253" stroke="url(#paint58_linear_585_8237)" stroke-width="0.5658" stroke-miterlimit="10" stroke-dasharray="0,0,0,2452.51953125">
    <animate attributeType="XML" attributeName="stroke-dasharray" repeatCount="1" dur="10s" values="0,0,0,2452.51953125;
          0,1226.259765625,1226.259765625,0;
          2452.51953125,0,0,0" keyTimes="0; 0.5; 1" fill="freeze"></animate>
  </path>
  <path d="M1942.37 -127.853C1933.4 -132.408 1907.36 -34.109 1844.23 83.5773C1828 113.829 1810.74 146.465 1792.27 178.44C1767.61 221.157 1737.36 262.511 1700.55 298.273C1662.01 335.823 1614.74 368.304 1561.96 386.409C1524.01 399.519 1483.94 403.658 1448.06 404.849C1439.39 405.135 1430.74 405.527 1421.87 405.862C1410.77 405.927 1398.88 405.837 1385.64 406.066C1365.61 406.408 1342.19 406.825 1316.23 408.572C1244.14 413.412 1153.21 427.959 1049.58 459.272C981.97 479.704 912.89 523.409 860.53 584.289C824.13 626.614 781.31 645.83 707.8 661.421C635.26 681.853 552.07 701.126 469.39 708.538C246.32 728.538 -17.45 635.757 -35.46 422.686" stroke="url(#paint59_linear_585_8237)" stroke-width="0.5658" stroke-miterlimit="10" stroke-dasharray="0,0,0,2468.328125">
    <animate attributeType="XML" attributeName="stroke-dasharray" repeatCount="1" dur="10s" values="0,0,0,2468.328125;
          0,1234.1640625,1234.1640625,0;
          2468.328125,0,0,0" keyTimes="0; 0.5; 1" fill="freeze"></animate>
  </path>
  <path d="M1939.59 -132.572C1933.61 -135.608 1911.01 -32.0439 1850.43 88.7036C1835.1 119.266 1818.26 151.689 1799.71 183.411C1774.98 225.761 1744.91 266.764 1708.58 302.411C1670.38 339.986 1624.23 372.344 1571.97 391.87C1534.34 405.992 1494.03 412.49 1455.12 414.694C1445.74 415.249 1436.29 415.722 1426.62 416.033C1414.47 416.049 1401.51 415.722 1387.38 415.518C1365.9 415.2 1341.54 414.71 1314.85 415.437C1241.19 417.445 1150.66 428.506 1047.93 463.982C983.17 486.349 915.99 528.903 859.09 590.093C819.77 632.377 771.62 656.034 700.73 673.951C627.77 696.024 544.67 713.216 462.2 718.342C233.55 732.546 -21.0899 636.508 -36.6299 427.118" stroke="url(#paint60_linear_585_8237)" stroke-width="0.5658" stroke-miterlimit="10" stroke-dasharray="0,0,0,2485.97802734375">
    <animate attributeType="XML" attributeName="stroke-dasharray" repeatCount="1" dur="10s" values="0,0,0,2485.97802734375;
          0,1242.989013671875,1242.989013671875,0;
          2485.97802734375,0,0,0" keyTimes="0; 0.5; 1" fill="freeze"></animate>
  </path>
  <path d="M1936.81 -137.282C1933.82 -138.8 1914.57 -29.9705 1856.63 93.8462C1842.18 124.727 1825.77 156.922 1807.16 188.407C1782.35 230.381 1752.46 271.041 1716.63 306.575C1678.76 344.165 1633.75 376.409 1582 397.356C1544.7 412.49 1504.14 421.273 1462.19 424.571C1452.1 425.371 1441.86 425.943 1431.37 426.228C1418.18 426.196 1404.15 425.632 1389.12 424.987C1366.19 424.008 1340.86 422.612 1313.48 422.318C1238.19 421.51 1147.91 428.93 1046.28 468.709C984.23 492.994 919.06 534.478 857.64 595.913C815.36 638.206 761.92 666.254 693.64 686.49C620.26 710.203 537.35 725.281 455 728.146C220.93 736.309 -24.7298 637.259 -37.8198 431.551" stroke="url(#paint61_linear_585_8237)" stroke-width="0.5658" stroke-miterlimit="10" stroke-dasharray="0,0,0,2505.48828125">
    <animate attributeType="XML" attributeName="stroke-dasharray" repeatCount="1" dur="10s" values="0,0,0,2505.48828125;
          0,1252.744140625,1252.744140625,0;
          2505.48828125,0,0,0" keyTimes="0; 0.5; 1" fill="freeze"></animate>
  </path>
  <path d="M1934.03 -142C1934.03 -142 1854.42 426.734 1436.13 436.424C1304.79 435.673 1100.21 373.552 856.21 601.741C612.21 829.939 -21.46 769.393 -39 436.016" stroke="url(#paint62_linear_585_8237)" stroke-width="0.5658" stroke-miterlimit="10" stroke-dasharray="0,0,0,2526.85107421875">
    <animate attributeType="XML" attributeName="stroke-dasharray" repeatCount="1" dur="10s" values="0,0,0,2526.85107421875;
          0,1263.425537109375,1263.425537109375,0;
          2526.85107421875,0,0,0" keyTimes="0; 0.5; 1" fill="freeze"></animate>
  </path>
  <defs>
    <linearGradient id="paint0_linear_585_8237" x1="582.745" y1="-139.643" x2="1189.49" y2="600.914" gradientUnits="userSpaceOnUse">
      <stop stop-color="#1BA4E5" stop-opacity="0.5"></stop>
      <stop offset="1" stop-color="#B40FE7"></stop>
    </linearGradient>
    <linearGradient id="paint1_linear_585_8237" x1="578.959" y1="-150.444" x2="1206.23" y2="615.164" gradientUnits="userSpaceOnUse">
      <stop stop-color="#1BA4E5" stop-opacity="0.5"></stop>
      <stop offset="1" stop-color="#B40FE7"></stop>
    </linearGradient>
    <linearGradient id="paint2_linear_585_8237" x1="657.919" y1="133.915" x2="1242.43" y2="847.336" gradientUnits="userSpaceOnUse">
      <stop stop-color="#1BA4E5" stop-opacity="0.5"></stop>
      <stop offset="1" stop-color="#B40FE7"></stop>
    </linearGradient>
    <linearGradient id="paint3_linear_585_8237" x1="664.274" y1="132.855" x2="1243.5" y2="839.817" gradientUnits="userSpaceOnUse">
      <stop stop-color="#1BA4E5" stop-opacity="0.5"></stop>
      <stop offset="1" stop-color="#B40FE7"></stop>
    </linearGradient>
    <linearGradient id="paint4_linear_585_8237" x1="660.434" y1="123.304" x2="1242.62" y2="833.887" gradientUnits="userSpaceOnUse">
      <stop stop-color="#1BA4E5" stop-opacity="0.5"></stop>
      <stop offset="1" stop-color="#B40FE7"></stop>
    </linearGradient>
    <linearGradient id="paint5_linear_585_8237" x1="656.716" y1="113.653" x2="1241.87" y2="827.856" gradientUnits="userSpaceOnUse">
      <stop stop-color="#1BA4E5" stop-opacity="0.5"></stop>
      <stop offset="1" stop-color="#B40FE7"></stop>
    </linearGradient>
    <linearGradient id="paint6_linear_585_8237" x1="653.171" y1="103.86" x2="1241.29" y2="821.684" gradientUnits="userSpaceOnUse">
      <stop stop-color="#1BA4E5" stop-opacity="0.5"></stop>
      <stop offset="1" stop-color="#B40FE7"></stop>
    </linearGradient>
    <linearGradient id="paint7_linear_585_8237" x1="649.713" y1="93.9975" x2="1240.8" y2="815.441" gradientUnits="userSpaceOnUse">
      <stop stop-color="#1BA4E5" stop-opacity="0.5"></stop>
      <stop offset="1" stop-color="#B40FE7"></stop>
    </linearGradient>
    <linearGradient id="paint8_linear_585_8237" x1="646.378" y1="84.0335" x2="1240.43" y2="809.096" gradientUnits="userSpaceOnUse">
      <stop stop-color="#1BA4E5" stop-opacity="0.5"></stop>
      <stop offset="1" stop-color="#B40FE7"></stop>
    </linearGradient>
    <linearGradient id="paint9_linear_585_8237" x1="643.169" y1="73.9681" x2="1240.18" y2="802.65" gradientUnits="userSpaceOnUse">
      <stop stop-color="#1BA4E5" stop-opacity="0.5"></stop>
      <stop offset="1" stop-color="#B40FE7"></stop>
    </linearGradient>
    <linearGradient id="paint10_linear_585_8237" x1="640.084" y1="63.801" x2="1240.06" y2="796.101" gradientUnits="userSpaceOnUse">
      <stop stop-color="#1BA4E5" stop-opacity="0.5"></stop>
      <stop offset="1" stop-color="#B40FE7"></stop>
    </linearGradient>
    <linearGradient id="paint11_linear_585_8237" x1="637.124" y1="53.5323" x2="1240.07" y2="789.451" gradientUnits="userSpaceOnUse">
      <stop stop-color="#1BA4E5" stop-opacity="0.5"></stop>
      <stop offset="1" stop-color="#B40FE7"></stop>
    </linearGradient>
    <linearGradient id="paint12_linear_585_8237" x1="634.29" y1="43.1607" x2="1240.2" y2="782.697" gradientUnits="userSpaceOnUse">
      <stop stop-color="#1BA4E5" stop-opacity="0.5"></stop>
      <stop offset="1" stop-color="#B40FE7"></stop>
    </linearGradient>
    <linearGradient id="paint13_linear_585_8237" x1="631.582" y1="32.6873" x2="1240.45" y2="775.841" gradientUnits="userSpaceOnUse">
      <stop stop-color="#1BA4E5" stop-opacity="0.5"></stop>
      <stop offset="1" stop-color="#B40FE7"></stop>
    </linearGradient>
    <linearGradient id="paint14_linear_585_8237" x1="629.001" y1="22.1111" x2="1240.84" y2="768.881" gradientUnits="userSpaceOnUse">
      <stop stop-color="#1BA4E5" stop-opacity="0.5"></stop>
      <stop offset="1" stop-color="#B40FE7"></stop>
    </linearGradient>
    <linearGradient id="paint15_linear_585_8237" x1="626.545" y1="11.4324" x2="1241.34" y2="761.819" gradientUnits="userSpaceOnUse">
      <stop stop-color="#1BA4E5" stop-opacity="0.5"></stop>
      <stop offset="1" stop-color="#B40FE7"></stop>
    </linearGradient>
    <linearGradient id="paint16_linear_585_8237" x1="624.215" y1="0.65171" x2="1241.98" y2="754.654" gradientUnits="userSpaceOnUse">
      <stop stop-color="#1BA4E5" stop-opacity="0.5"></stop>
      <stop offset="1" stop-color="#B40FE7"></stop>
    </linearGradient>
    <linearGradient id="paint17_linear_585_8237" x1="622.01" y1="-10.2302" x2="1242.73" y2="747.386" gradientUnits="userSpaceOnUse">
      <stop stop-color="#1BA4E5" stop-opacity="0.5"></stop>
      <stop offset="1" stop-color="#B40FE7"></stop>
    </linearGradient>
    <linearGradient id="paint18_linear_585_8237" x1="619.928" y1="-21.2119" x2="1243.61" y2="740.019" gradientUnits="userSpaceOnUse">
      <stop stop-color="#1BA4E5" stop-opacity="0.5"></stop>
      <stop offset="1" stop-color="#B40FE7"></stop>
    </linearGradient>
    <linearGradient id="paint19_linear_585_8237" x1="617.967" y1="-32.2913" x2="1244.61" y2="732.553" gradientUnits="userSpaceOnUse">
      <stop stop-color="#1BA4E5" stop-opacity="0.5"></stop>
      <stop offset="1" stop-color="#B40FE7"></stop>
    </linearGradient>
    <linearGradient id="paint20_linear_585_8237" x1="616.076" y1="-43.4271" x2="1245.69" y2="725.036" gradientUnits="userSpaceOnUse">
      <stop stop-color="#1BA4E5" stop-opacity="0.5"></stop>
      <stop offset="1" stop-color="#B40FE7"></stop>
    </linearGradient>
    <linearGradient id="paint21_linear_585_8237" x1="614.187" y1="-54.5639" x2="1246.76" y2="717.518" gradientUnits="userSpaceOnUse">
      <stop stop-color="#1BA4E5" stop-opacity="0.5"></stop>
      <stop offset="1" stop-color="#B40FE7"></stop>
    </linearGradient>
    <linearGradient id="paint22_linear_585_8237" x1="612.299" y1="-65.6998" x2="1247.84" y2="710.001" gradientUnits="userSpaceOnUse">
      <stop stop-color="#1BA4E5" stop-opacity="0.5"></stop>
      <stop offset="1" stop-color="#B40FE7"></stop>
    </linearGradient>
    <linearGradient id="paint23_linear_585_8237" x1="610.411" y1="-76.8355" x2="1248.91" y2="702.483" gradientUnits="userSpaceOnUse">
      <stop stop-color="#1BA4E5" stop-opacity="0.5"></stop>
      <stop offset="1" stop-color="#B40FE7"></stop>
    </linearGradient>
    <linearGradient id="paint24_linear_585_8237" x1="608.468" y1="-87.9401" x2="1249.94" y2="695.004" gradientUnits="userSpaceOnUse">
      <stop stop-color="#1BA4E5" stop-opacity="0.5"></stop>
      <stop offset="1" stop-color="#B40FE7"></stop>
    </linearGradient>
    <linearGradient id="paint25_linear_585_8237" x1="605.919" y1="-98.5749" x2="1250.38" y2="688.011" gradientUnits="userSpaceOnUse">
      <stop stop-color="#1BA4E5" stop-opacity="0.5"></stop>
      <stop offset="1" stop-color="#B40FE7"></stop>
    </linearGradient>
    <linearGradient id="paint26_linear_585_8237" x1="602.752" y1="-108.702" x2="1250.19" y2="681.526" gradientUnits="userSpaceOnUse">
      <stop stop-color="#1BA4E5" stop-opacity="0.5"></stop>
      <stop offset="1" stop-color="#B40FE7"></stop>
    </linearGradient>
    <linearGradient id="paint27_linear_585_8237" x1="599.087" y1="-118.423" x2="1249.51" y2="675.448" gradientUnits="userSpaceOnUse">
      <stop stop-color="#1BA4E5" stop-opacity="0.5"></stop>
      <stop offset="1" stop-color="#B40FE7"></stop>
    </linearGradient>
    <linearGradient id="paint28_linear_585_8237" x1="595.017" y1="-127.811" x2="1248.43" y2="669.701" gradientUnits="userSpaceOnUse">
      <stop stop-color="#1BA4E5" stop-opacity="0.5"></stop>
      <stop offset="1" stop-color="#B40FE7"></stop>
    </linearGradient>
    <linearGradient id="paint29_linear_585_8237" x1="590.613" y1="-136.924" x2="1247" y2="664.229" gradientUnits="userSpaceOnUse">
      <stop stop-color="#1BA4E5" stop-opacity="0.5"></stop>
      <stop offset="1" stop-color="#B40FE7"></stop>
    </linearGradient>
    <linearGradient id="paint30_linear_585_8237" x1="585.928" y1="-145.806" x2="1245.3" y2="658.987" gradientUnits="userSpaceOnUse">
      <stop stop-color="#1BA4E5" stop-opacity="0.5"></stop>
      <stop offset="1" stop-color="#B40FE7"></stop>
    </linearGradient>
    <linearGradient id="paint31_linear_585_8237" x1="581.007" y1="-154.494" x2="1243.36" y2="653.939" gradientUnits="userSpaceOnUse">
      <stop stop-color="#1BA4E5" stop-opacity="0.5"></stop>
      <stop offset="1" stop-color="#B40FE7"></stop>
    </linearGradient>
    <linearGradient id="paint32_linear_585_8237" x1="575.884" y1="-163.016" x2="1241.22" y2="649.057" gradientUnits="userSpaceOnUse">
      <stop stop-color="#1BA4E5" stop-opacity="0.5"></stop>
      <stop offset="1" stop-color="#B40FE7"></stop>
    </linearGradient>
    <linearGradient id="paint33_linear_585_8237" x1="570.587" y1="-171.394" x2="1238.91" y2="644.318" gradientUnits="userSpaceOnUse">
      <stop stop-color="#1BA4E5" stop-opacity="0.5"></stop>
      <stop offset="1" stop-color="#B40FE7"></stop>
    </linearGradient>
    <linearGradient id="paint34_linear_585_8237" x1="571.682" y1="-168.815" x2="1234.87" y2="640.634" gradientUnits="userSpaceOnUse">
      <stop stop-color="#1BA4E5" stop-opacity="0.5"></stop>
      <stop offset="1" stop-color="#B40FE7"></stop>
    </linearGradient>
    <linearGradient id="paint35_linear_585_8237" x1="572.765" y1="-166.226" x2="1230.82" y2="636.959" gradientUnits="userSpaceOnUse">
      <stop stop-color="#1BA4E5" stop-opacity="0.5"></stop>
      <stop offset="1" stop-color="#B40FE7"></stop>
    </linearGradient>
    <linearGradient id="paint36_linear_585_8237" x1="573.835" y1="-163.626" x2="1226.76" y2="633.297" gradientUnits="userSpaceOnUse">
      <stop stop-color="#1BA4E5" stop-opacity="0.5"></stop>
      <stop offset="1" stop-color="#B40FE7"></stop>
    </linearGradient>
    <linearGradient id="paint37_linear_585_8237" x1="574.891" y1="-161.015" x2="1222.69" y2="629.644" gradientUnits="userSpaceOnUse">
      <stop stop-color="#1BA4E5" stop-opacity="0.5"></stop>
      <stop offset="1" stop-color="#B40FE7"></stop>
    </linearGradient>
    <linearGradient id="paint38_linear_585_8237" x1="575.931" y1="-158.392" x2="1218.6" y2="626.005" gradientUnits="userSpaceOnUse">
      <stop stop-color="#1BA4E5" stop-opacity="0.5"></stop>
      <stop offset="1" stop-color="#B40FE7"></stop>
    </linearGradient>
    <linearGradient id="paint39_linear_585_8237" x1="576.957" y1="-155.756" x2="1214.49" y2="622.377" gradientUnits="userSpaceOnUse">
      <stop stop-color="#1BA4E5" stop-opacity="0.5"></stop>
      <stop offset="1" stop-color="#B40FE7"></stop>
    </linearGradient>
    <linearGradient id="paint40_linear_585_8237" x1="577.966" y1="-153.108" x2="1210.37" y2="618.763" gradientUnits="userSpaceOnUse">
      <stop stop-color="#1BA4E5" stop-opacity="0.5"></stop>
      <stop offset="1" stop-color="#B40FE7"></stop>
    </linearGradient>
    <linearGradient id="paint41_linear_585_8237" x1="579.933" y1="-147.767" x2="1202.07" y2="611.578" gradientUnits="userSpaceOnUse">
      <stop stop-color="#1BA4E5" stop-opacity="0.5"></stop>
      <stop offset="1" stop-color="#B40FE7"></stop>
    </linearGradient>
    <linearGradient id="paint42_linear_585_8237" x1="580.89" y1="-145.075" x2="1197.9" y2="608.008" gradientUnits="userSpaceOnUse">
      <stop stop-color="#1BA4E5" stop-opacity="0.5"></stop>
      <stop offset="1" stop-color="#B40FE7"></stop>
    </linearGradient>
    <linearGradient id="paint43_linear_585_8237" x1="581.827" y1="-142.367" x2="1193.7" y2="604.453" gradientUnits="userSpaceOnUse">
      <stop stop-color="#1BA4E5" stop-opacity="0.5"></stop>
      <stop offset="1" stop-color="#B40FE7"></stop>
    </linearGradient>
    <linearGradient id="paint44_linear_585_8237" x1="583.642" y1="-136.902" x2="1185.26" y2="597.391" gradientUnits="userSpaceOnUse">
      <stop stop-color="#1BA4E5" stop-opacity="0.5"></stop>
      <stop offset="1" stop-color="#B40FE7"></stop>
    </linearGradient>
    <linearGradient id="paint45_linear_585_8237" x1="584.519" y1="-134.145" x2="1181" y2="593.886" gradientUnits="userSpaceOnUse">
      <stop stop-color="#1BA4E5" stop-opacity="0.5"></stop>
      <stop offset="1" stop-color="#B40FE7"></stop>
    </linearGradient>
    <linearGradient id="paint46_linear_585_8237" x1="585.375" y1="-131.37" x2="1176.73" y2="590.398" gradientUnits="userSpaceOnUse">
      <stop stop-color="#1BA4E5" stop-opacity="0.5"></stop>
      <stop offset="1" stop-color="#B40FE7"></stop>
    </linearGradient>
    <linearGradient id="paint47_linear_585_8237" x1="586.209" y1="-128.578" x2="1180.11" y2="596.302" gradientUnits="userSpaceOnUse">
      <stop stop-color="#1BA4E5" stop-opacity="0.5"></stop>
      <stop offset="1" stop-color="#B40FE7"></stop>
    </linearGradient>
    <linearGradient id="paint48_linear_585_8237" x1="587.022" y1="-125.768" x2="1184.52" y2="603.501" gradientUnits="userSpaceOnUse">
      <stop stop-color="#1BA4E5" stop-opacity="0.5"></stop>
      <stop offset="1" stop-color="#B40FE7"></stop>
    </linearGradient>
    <linearGradient id="paint49_linear_585_8237" x1="587.813" y1="-122.942" x2="1188.91" y2="610.724" gradientUnits="userSpaceOnUse">
      <stop stop-color="#1BA4E5" stop-opacity="0.5"></stop>
      <stop offset="1" stop-color="#B40FE7"></stop>
    </linearGradient>
    <linearGradient id="paint50_linear_585_8237" x1="588.584" y1="-120.097" x2="1193.29" y2="617.972" gradientUnits="userSpaceOnUse">
      <stop stop-color="#1BA4E5" stop-opacity="0.5"></stop>
      <stop offset="1" stop-color="#B40FE7"></stop>
    </linearGradient>
    <linearGradient id="paint51_linear_585_8237" x1="589.333" y1="-117.236" x2="1197.65" y2="625.245" gradientUnits="userSpaceOnUse">
      <stop stop-color="#1BA4E5" stop-opacity="0.5"></stop>
      <stop offset="1" stop-color="#B40FE7"></stop>
    </linearGradient>
    <linearGradient id="paint52_linear_585_8237" x1="590.063" y1="-114.358" x2="1202.01" y2="632.542" gradientUnits="userSpaceOnUse">
      <stop stop-color="#1BA4E5" stop-opacity="0.5"></stop>
      <stop offset="1" stop-color="#B40FE7"></stop>
    </linearGradient>
    <linearGradient id="paint53_linear_585_8237" x1="590.774" y1="-111.465" x2="1206.35" y2="639.865" gradientUnits="userSpaceOnUse">
      <stop stop-color="#1BA4E5" stop-opacity="0.5"></stop>
      <stop offset="1" stop-color="#B40FE7"></stop>
    </linearGradient>
    <linearGradient id="paint54_linear_585_8237" x1="591.466" y1="-108.556" x2="1210.68" y2="647.214" gradientUnits="userSpaceOnUse">
      <stop stop-color="#1BA4E5" stop-opacity="0.5"></stop>
      <stop offset="1" stop-color="#B40FE7"></stop>
    </linearGradient>
    <linearGradient id="paint55_linear_585_8237" x1="592.141" y1="-105.634" x2="1215" y2="654.587" gradientUnits="userSpaceOnUse">
      <stop stop-color="#1BA4E5" stop-opacity="0.5"></stop>
      <stop offset="1" stop-color="#B40FE7"></stop>
    </linearGradient>
    <linearGradient id="paint56_linear_585_8237" x1="59.5758" y1="573.927" x2="2131.49" y2="-48.7542" gradientUnits="userSpaceOnUse">
      <stop stop-color="#2B378F"></stop>
      <stop offset="0.425" stop-color="#7A288E"></stop>
      <stop offset="1" stop-color="#FAB35E"></stop>
    </linearGradient>
    <linearGradient id="paint57_linear_585_8237" x1="58.3316" y1="579.978" x2="2133.97" y2="-33.9261" gradientUnits="userSpaceOnUse">
      <stop stop-color="#2B378F"></stop>
      <stop offset="0.425" stop-color="#7A288E"></stop>
      <stop offset="1" stop-color="#FAB35E"></stop>
    </linearGradient>
    <linearGradient id="paint58_linear_585_8237" x1="57.0683" y1="586.203" x2="2136.34" y2="-18.9579" gradientUnits="userSpaceOnUse">
      <stop stop-color="#2B378F"></stop>
      <stop offset="0.425" stop-color="#7A288E"></stop>
      <stop offset="1" stop-color="#FAB35E"></stop>
    </linearGradient>
    <linearGradient id="paint59_linear_585_8237" x1="55.8245" y1="592.611" x2="2138.59" y2="-3.84145" gradientUnits="userSpaceOnUse">
      <stop stop-color="#2B378F"></stop>
      <stop offset="0.425" stop-color="#7A288E"></stop>
      <stop offset="1" stop-color="#FAB35E"></stop>
    </linearGradient>
    <linearGradient id="paint60_linear_585_8237" x1="54.5803" y1="599.273" x2="2140.75" y2="11.5456" gradientUnits="userSpaceOnUse">
      <stop stop-color="#2B378F"></stop>
      <stop offset="0.425" stop-color="#7A288E"></stop>
      <stop offset="1" stop-color="#FAB35E"></stop>
    </linearGradient>
    <linearGradient id="paint61_linear_585_8237" x1="53.3169" y1="606.255" x2="2142.82" y2="27.2724" gradientUnits="userSpaceOnUse">
      <stop stop-color="#2B378F"></stop>
      <stop offset="0.425" stop-color="#7A288E"></stop>
      <stop offset="1" stop-color="#FAB35E"></stop>
    </linearGradient>
    <linearGradient id="paint62_linear_585_8237" x1="52.0629" y1="613.652" x2="2144.85" y2="43.5075" gradientUnits="userSpaceOnUse">
      <stop stop-color="#2B378F"></stop>
      <stop offset="0.425" stop-color="#7A288E"></stop>
      <stop offset="1" stop-color="#FAB35E"></stop>
    </linearGradient>
  </defs>
</svg>