<svg width="87" height="70" viewBox="0 0 87 70" fill="none" xmlns="http://www.w3.org/2000/svg">
<g clip-path="url(#clip0_1007_543)">
<path d="M61.9112 17.4651V26.5713C61.6356 26.5515 61.3641 26.5199 61.0968 26.4804C55.33 25.654 50.8877 20.8023 50.8877 15.0334C50.8877 14.9978 50.8877 11.7752 50.8877 10.5969H51.7062C56.819 10.5969 60.5785 13.2659 61.9112 17.4651Z" fill="url(#paint0_linear_1007_543)"/>
<path d="M61.911 0V17.4651C60.5783 13.2659 56.8147 10.5969 51.7061 10.5969H50.8875L43.1259 10.7036C34.451 11.443 27.6477 18.4417 27.6477 26.9746C27.6477 32.4233 30.4283 37.2472 34.6937 40.2167C26.8498 37.0535 21.8398 29.9441 21.8398 20.9684C21.8398 12.9574 25.7968 6.47279 32.2093 2.93786C34.015 1.94144 36.0141 1.17831 38.1735 0.680098C40.0985 0.237243 42.1469 0 44.3022 0H61.9151L61.911 0Z" fill="url(#paint1_linear_1007_543)"/>
<path d="M64.7941 42H44.302C40.7893 42 37.5521 41.3674 34.6934 40.2128C30.428 37.2433 27.6475 32.4233 27.6475 26.9707C27.6475 18.4378 34.4508 11.4391 43.1256 10.6997C37.6591 11.3838 34.1299 15.3101 34.1299 20.9644C34.1299 27.1604 38.4241 31.4032 44.8655 31.4032H52.7547V31.3834H53.7501C57.1517 31.3834 60.1914 32.8622 62.2151 35.1872C63.8234 37.0298 64.79 39.4062 64.79 42H64.7941Z" fill="url(#paint2_linear_1007_543)"/>
</g>
<g clip-path="url(#clip1_1007_543)">
<path d="M14.6519 51.3817C14.8455 51.1904 14.9423 50.9317 14.9423 50.6093C14.9423 49.9999 14.6519 49.6456 14.0674 49.5393L14.9311 48.604H13.9371L12.8947 49.6988V50.3755C13.0995 50.209 13.3303 50.1275 13.5797 50.1275C13.9743 50.1275 14.1717 50.2727 14.1717 50.5668C14.1717 50.8077 14.0451 50.9282 13.7919 50.9282H12.4406L12.0273 51.6722H13.8738C14.1977 51.6722 14.4546 51.5765 14.6482 51.3852L14.6519 51.3817Z" fill="white"/>
<path d="M19.7483 56.3206C19.4803 56.3206 19.2644 56.395 19.1043 56.5473C18.9442 56.6961 18.8623 56.8981 18.8623 57.1461C18.8623 57.3941 18.9442 57.6067 19.1043 57.7661C19.2644 57.9255 19.4803 58.0035 19.7483 58.0035C20.0164 58.0035 20.2174 57.9255 20.3775 57.7732C20.5338 57.6208 20.6157 57.4118 20.6157 57.1461C20.6157 56.8981 20.5375 56.6997 20.3775 56.5473C20.2211 56.3985 20.0089 56.3206 19.7483 56.3206Z" fill="white"/>
<path d="M21.7137 56.3206C21.4531 56.3206 21.2409 56.395 21.0808 56.5473C20.9208 56.6961 20.8389 56.8981 20.8389 57.1461C20.8389 57.3941 20.9208 57.6067 21.0808 57.7661C21.2409 57.9255 21.4531 58.0035 21.7137 58.0035C21.9743 58.0035 22.194 57.9255 22.354 57.7732C22.5104 57.6208 22.5923 57.4118 22.5923 57.1461C22.5923 56.8981 22.5104 56.6997 22.3503 56.5473C22.1902 56.3985 21.978 56.3206 21.7174 56.3206H21.7137Z" fill="white"/>
<path d="M20.9806 53.1213C20.9806 53.3623 20.9285 53.5323 20.828 53.628C20.7275 53.7236 20.5488 53.7732 20.2956 53.7732H18.6129C18.3598 53.7732 18.1811 53.7236 18.0806 53.628C17.9763 53.5288 17.928 53.3623 17.928 53.1213V48.0833L16.2118 48.9513V53.1107C16.2118 53.3587 16.1634 53.5323 16.0628 53.628C15.9623 53.7272 15.7874 53.7732 15.5342 53.7732H11.7072C11.4541 53.7732 11.2791 53.7236 11.1786 53.628C11.0781 53.5288 11.0297 53.3587 11.0297 53.1107V51.2967L9.31348 52.1647V53.2028C9.31348 53.8122 9.48845 54.3082 9.83466 54.6909C10.2293 55.1337 10.7691 55.3569 11.4578 55.3569H15.6831C16.2266 55.3569 16.6883 55.2294 17.068 54.9743C17.4328 55.2294 17.887 55.3569 18.4417 55.3569H20.4557C21.096 55.3569 21.6135 55.1833 22.0081 54.8397C22.466 54.4429 22.6931 53.8937 22.6931 53.1957V50.287L20.9769 51.155V53.1284L20.9806 53.1213Z" fill="white"/>
<path d="M34.4091 50.7902C33.9996 50.528 33.538 50.3615 33.0242 50.2942L35.0829 48.0869H33.3555L31.0474 50.5316V52.1082C31.4979 51.9594 31.9186 51.8814 32.3132 51.8814C32.7078 51.8814 33.054 51.9558 33.3332 52.1082C33.7502 52.3349 33.9624 52.6715 33.9624 53.1215V53.1781C33.9624 53.575 33.739 53.7769 33.2885 53.7769H29.2977V52.2109C29.2977 51.6015 29.119 51.1091 28.7654 50.7335C28.3484 50.2977 27.7602 50.0816 27.0008 50.0816C26.2823 50.0816 25.7053 50.3013 25.2734 50.7335C24.782 51.2153 24.54 51.8743 24.54 52.7176C24.54 53.3269 24.7262 53.8549 25.0985 54.3048C25.5489 54.8398 26.1669 55.1551 26.9561 55.2508C27.2018 55.2791 27.4103 55.3004 27.5853 55.3075C27.5555 55.4952 27.4289 55.6618 27.2055 55.8035C26.9859 55.9452 26.7402 56.0161 26.4722 56.0161C26.0478 56.0161 25.5973 55.8885 25.1208 55.6334V57.0648C25.642 57.3411 26.1594 57.4828 26.6732 57.4828C27.3135 57.4828 27.8682 57.3128 28.341 56.9762C28.918 56.5723 29.2344 56.0302 29.2866 55.3535H33.4561C34.0889 55.3535 34.5989 55.1835 34.9936 54.8469C35.4589 54.4642 35.6934 53.9257 35.6934 53.2348V53.1002C35.6934 52.094 35.269 51.3252 34.4165 50.7902H34.4091ZM27.5741 53.7521C26.6732 53.7521 26.2227 53.3872 26.2227 52.6573C26.2227 51.9275 26.4796 51.6086 26.9933 51.6086C27.3805 51.6086 27.5741 51.8106 27.5741 52.218V53.7521Z" fill="white"/>
<path d="M48.0823 56.3206C47.8143 56.3206 47.5983 56.395 47.4383 56.5473C47.2782 56.6961 47.1963 56.9016 47.1963 57.1567C47.1963 57.4118 47.2782 57.6173 47.4383 57.7696C47.5983 57.922 47.8143 57.9999 48.0823 57.9999C48.3503 57.9999 48.5514 57.922 48.7115 57.7696C48.8678 57.6173 48.9497 57.4118 48.9497 57.1567C48.9497 56.9016 48.8715 56.6997 48.7115 56.5473C48.5514 56.395 48.3429 56.3206 48.0823 56.3206Z" fill="white"/>
<path d="M49.4931 50.7262C48.9011 50.294 48.2906 50.0779 47.6577 50.0779H47.6354C46.7829 50.0779 46.0197 50.4357 45.3496 51.1479V52.5686C46.1463 51.9167 46.8499 51.5872 47.4567 51.5872C48.1268 51.5872 48.7113 51.9698 49.2101 52.7351C48.4358 53.426 47.4046 53.7732 46.1202 53.7732H43.8121C43.4026 53.7732 43.1755 53.6208 43.1383 53.3126V50.2798L43.1271 50.2905V50.2798L41.4109 51.1479V54.7085C41.4109 55.3923 41.169 55.8139 40.6887 55.9698C40.5212 56.0301 40.3425 56.0584 40.1452 56.0584C39.758 56.0584 39.3597 55.9486 38.9502 55.7324V57.1532C39.449 57.4153 39.9553 57.5464 40.4765 57.5464C40.8637 57.5464 41.2211 57.472 41.5524 57.3197C42.39 56.9512 42.8963 56.2745 43.0787 55.2931C43.276 55.3321 43.4659 55.3498 43.6483 55.3498H46.1128C47.1217 55.3498 48.0598 55.1585 48.9198 54.7794C49.7797 54.4003 50.4982 53.8618 51.0752 53.1638V52.565C50.6173 51.7679 50.0924 51.1549 49.5005 50.7227L49.4931 50.7262Z" fill="white"/>
<path d="M53.741 54.7121C53.741 55.3959 53.499 55.8175 53.0188 55.9734C52.8513 56.0337 52.6726 56.062 52.4753 56.062C52.0881 56.062 51.6898 55.9522 51.2803 55.7361V57.1568C51.7791 57.419 52.2854 57.5501 52.8066 57.5501C53.1938 57.5501 53.5512 57.4757 53.8825 57.3233C54.3888 57.1036 54.7797 56.7564 55.0552 56.2817C55.3306 55.8034 55.4684 55.2436 55.4684 54.5988V50.2834L53.741 51.1621V54.7121Z" fill="white"/>
<path d="M67.4076 47.5199C67.6459 47.5199 67.8357 47.4491 67.9809 47.3109C68.1261 47.1727 68.2006 46.9849 68.2006 46.7547C68.2006 46.2516 67.9363 46 67.4076 46C66.879 46 66.6035 46.2516 66.6035 46.7547C66.6035 46.9885 66.678 47.1727 66.8232 47.3109C66.9683 47.4491 67.1656 47.5199 67.4076 47.5199Z" fill="white"/>
<path d="M67.5264 48.4908C67.5264 48.7459 67.6083 48.9514 67.7683 49.1108C67.9284 49.2702 68.1406 49.3482 68.4012 49.3482C68.6618 49.3482 68.874 49.2702 69.0341 49.1179C69.1942 48.9656 69.2761 48.7565 69.2761 48.4908C69.2761 48.2428 69.1942 48.0408 69.0341 47.8885C68.874 47.7361 68.6618 47.6582 68.4012 47.6582C68.1406 47.6582 67.9284 47.7361 67.7683 47.8885C67.6083 48.0408 67.5264 48.2428 67.5264 48.4908Z" fill="white"/>
<path d="M66.4247 49.3482C66.6852 49.3482 66.8974 49.2702 67.0575 49.1179C67.2176 48.9656 67.2995 48.7565 67.2995 48.4908C67.2995 48.2428 67.2176 48.0408 67.0575 47.8885C66.8974 47.7361 66.6852 47.6582 66.4247 47.6582C66.1641 47.6582 65.9519 47.7361 65.7918 47.8885C65.6317 48.0408 65.5498 48.2428 65.5498 48.4908C65.5498 48.7388 65.6317 48.9514 65.7918 49.1108C65.9519 49.2702 66.1641 49.3482 66.4247 49.3482Z" fill="white"/>
<path d="M76.4385 49.2666C76.7065 49.2666 76.9187 49.1887 77.0788 49.0364C77.2352 48.884 77.3171 48.675 77.3171 48.4092C77.3171 48.1612 77.2352 47.9628 77.0751 47.8105C76.915 47.6617 76.7028 47.5837 76.4422 47.5837C76.1816 47.5837 75.9694 47.6581 75.8094 47.8105C75.6493 47.9593 75.5674 48.1612 75.5674 48.4092C75.5674 48.6573 75.6493 48.8698 75.8094 49.0293C75.9694 49.1887 76.1816 49.2666 76.4422 49.2666H76.4385Z" fill="white"/>
<path d="M75.5306 53.1213C75.5306 53.3623 75.4785 53.5323 75.3779 53.628C75.2774 53.7236 75.0987 53.7732 74.8456 53.7732H73.2001C72.8688 53.7732 72.638 53.7059 72.5151 53.5748C72.3886 53.4437 72.3253 53.2135 72.3253 52.8804V50.2763L70.5979 51.1444V53.1178C70.5979 53.3658 70.5495 53.5359 70.449 53.6315C70.3485 53.7272 70.1735 53.7732 69.9204 53.7732H68.986C68.7328 53.7732 68.5578 53.7272 68.4573 53.6315C68.3568 53.5359 68.3084 53.3658 68.3084 53.1178V50.5492L66.5922 51.4065V53.1178C66.5922 53.3587 66.5401 53.5288 66.4396 53.6244C66.3391 53.7201 66.1604 53.7697 65.9072 53.7697H64.9952C64.7346 53.7697 64.5559 53.7201 64.4554 53.6244C64.3548 53.5252 64.3065 53.3587 64.3065 53.1178V50.8078L62.5903 51.6758V53.1178C62.5903 53.3658 62.5419 53.5359 62.4413 53.6315C62.3408 53.7272 62.1659 53.7732 61.9127 53.7732H60.0662C59.8131 53.7732 59.6344 53.7236 59.5339 53.628C59.4296 53.5288 59.3812 53.3623 59.3812 53.1213V48.0833L57.665 48.9513V53.1887C57.665 53.798 57.8437 54.2976 58.1974 54.6873C58.6069 55.1302 59.1765 55.3534 59.9024 55.3534H62.0691C62.6126 55.3534 63.0705 55.2152 63.4428 54.9353C63.8225 55.2117 64.2841 55.3534 64.8276 55.3534H66.1641C66.6704 55.3321 67.0948 55.1904 67.4447 54.9353C67.8245 55.2117 68.2861 55.3534 68.8296 55.3534H70.1661C70.7357 55.3321 71.1973 55.1727 71.5509 54.8786C71.9679 55.194 72.4891 55.3534 73.1145 55.3534H75.0094C75.6497 55.3534 76.1672 55.1798 76.5618 54.8361C77.0197 54.4393 77.2468 53.8902 77.2468 53.1922V50.2834L75.5306 51.1515V53.1249V53.1213Z" fill="white"/>
<path d="M74.4768 49.2666C74.7374 49.2666 74.9459 49.1887 75.106 49.0364C75.2623 48.884 75.3442 48.675 75.3442 48.4092C75.3442 48.1612 75.2661 47.9628 75.106 47.8105C74.9496 47.6617 74.7374 47.5837 74.4768 47.5837C74.2162 47.5837 73.9929 47.6581 73.8328 47.8105C73.6727 47.9593 73.5908 48.1612 73.5908 48.4092C73.5908 48.6573 73.6727 48.8698 73.8328 49.0293C73.9929 49.1887 74.2088 49.2666 74.4768 49.2666Z" fill="white"/>
</g>
<g clip-path="url(#clip2_1007_543)">
<path d="M3.63572 69.0522C3.06631 69.0522 2.55349 68.9744 2.10433 68.8152C1.65517 68.6561 1.27321 68.4262 0.961981 68.1256C0.650752 67.8249 0.410256 67.4536 0.247569 67.0186C0.0813439 66.5836 0 66.0884 0 65.5367C0 64.985 0.0884173 64.4934 0.261715 64.0548C0.435013 63.6198 0.686118 63.2485 1.00796 62.9408C1.3298 62.6331 1.71883 62.4032 2.17153 62.2405C2.62423 62.0778 3.13351 62 3.69938 62C4.12378 62 4.53404 62.046 4.93369 62.1344C5.33333 62.2263 5.69408 62.3714 6.01592 62.5729C6.33775 62.7745 6.61008 63.0363 6.82582 63.3546C7.04509 63.6729 7.18302 64.0584 7.24315 64.5075H5.88152C5.83554 64.3059 5.74005 64.1256 5.59505 63.9699C5.45004 63.8108 5.27675 63.6799 5.07516 63.5703C4.87356 63.4642 4.65075 63.3828 4.41026 63.3298C4.16976 63.2767 3.91866 63.2485 3.66401 63.2485C3.26083 63.2485 2.91777 63.305 2.6313 63.4147C2.34483 63.5243 2.10787 63.6799 1.91689 63.8815C1.72591 64.0831 1.58444 64.3236 1.49248 64.603C1.40053 64.8824 1.35809 65.1901 1.35809 65.5261C1.35809 65.8621 1.40053 66.1592 1.48895 66.4385C1.57737 66.7179 1.7153 66.9584 1.90628 67.1636C2.09726 67.3687 2.33775 67.5279 2.62776 67.6375C2.91777 67.7471 3.26083 67.8037 3.66401 67.8037C3.8939 67.8037 4.12732 67.779 4.36782 67.7294C4.60831 67.6799 4.83466 67.6021 5.04332 67.496C5.25199 67.3935 5.4359 67.2591 5.59151 67.0964C5.75066 66.9337 5.85676 66.7427 5.90981 66.5234H7.25022C7.17595 66.9726 7.02741 67.3581 6.80106 67.6764C6.57471 67.9947 6.29885 68.2564 5.96994 68.4615C5.64103 68.6667 5.27321 68.8152 4.87356 68.9107C4.47038 69.0062 4.05659 69.0522 3.63572 69.0522Z" fill="white"/>
<path d="M14.8219 62V69.0522H13.4921V66.1202H9.13839V69.0522H7.80859V62H9.13839V64.8718H13.4921V62H14.8219Z" fill="white"/>
<path d="M20.5343 62L23.0136 69.0522H21.5741L21.0401 67.4819H17.2912L16.7253 69.0522H15.293L17.8429 62H19.1939L17.6519 66.3537H20.6758L19.1939 62H20.5343Z" fill="white"/>
<path d="M24.8132 69.0522H23.4834V62H27.5647C27.8654 62 28.1766 62.0283 28.4914 62.0849C28.8061 62.1415 29.0961 62.2405 29.3578 62.382C29.6196 62.5234 29.8318 62.7109 29.998 62.9408C30.1607 63.1706 30.2456 63.4677 30.2456 63.8214C30.2456 64.0619 30.1819 64.2776 30.0475 64.4615C29.9166 64.6454 29.7504 64.8011 29.5524 64.9248C29.3543 65.0486 29.1386 65.1441 28.9087 65.2113C28.6753 65.2785 28.4631 65.3139 28.2685 65.321H30.242V69.0486H28.8203V66.4881H24.8097V69.0486L24.8132 69.0522ZM24.8132 63.1883V65.3245H27.5541C27.7416 65.3245 27.9149 65.2997 28.074 65.2502C28.2332 65.2007 28.3746 65.1229 28.4984 65.0239C28.6222 64.9248 28.7177 64.8046 28.7849 64.6667C28.8521 64.5287 28.8839 64.3731 28.8839 64.1998C28.8839 64.0053 28.845 63.8426 28.7637 63.7153C28.6823 63.588 28.5798 63.4854 28.4525 63.4076C28.3251 63.3298 28.1837 63.2767 28.028 63.2414C27.8724 63.2095 27.7204 63.1919 27.5647 63.1919H24.8132V63.1883Z" fill="white"/>
<path d="M34.7299 63.22C33.9094 63.22 33.2869 63.4181 32.8625 63.8107C32.4346 64.2032 32.2223 64.8009 32.2223 65.6002C32.2223 66.3995 32.4381 66.9477 32.8731 67.3085C33.3081 67.6692 33.9058 67.846 34.6733 67.846C34.9138 67.846 35.1649 67.8071 35.4231 67.7258C35.6812 67.6444 35.9147 67.5348 36.1233 67.3933C36.332 67.2519 36.5017 67.0856 36.6361 66.8911C36.7705 66.6966 36.8377 66.4844 36.8377 66.2581H34.5919V65.1086H38.0685V68.9566H36.8377V66.2581C36.8377 66.5339 36.8024 66.8345 36.7316 67.1599C36.6609 67.4853 36.5371 67.7894 36.3638 68.0724C36.1905 68.3553 35.9536 68.5887 35.6529 68.7762C35.3523 68.9636 34.9774 69.0591 34.5212 69.0591C33.9518 69.0591 33.439 68.9813 32.9863 68.8257C32.5336 68.6701 32.1481 68.4473 31.8333 68.1502C31.5185 67.8531 31.2781 67.4888 31.1118 67.0503C30.9456 66.6153 30.8643 66.1131 30.8643 65.5507C30.8643 64.9318 30.9633 64.4013 31.1578 63.9521C31.3523 63.5065 31.6246 63.1387 31.9748 62.8487C32.3249 62.5587 32.7352 62.3465 33.2091 62.2085C33.683 62.0706 34.2029 62.0034 34.7652 62.0034C35.1684 62.0034 35.5575 62.0494 35.9323 62.1378C36.3072 62.2298 36.6468 62.3712 36.9509 62.5658C37.2515 62.7603 37.5026 63.0114 37.7007 63.3226C37.8987 63.6303 38.0225 64.0052 38.0685 64.4402H36.7175C36.6574 64.2068 36.5619 64.0087 36.431 63.8496C36.3002 63.6904 36.1481 63.5666 35.9712 63.4711C35.7944 63.3757 35.6034 63.312 35.3912 63.2731C35.179 63.2377 34.9597 63.2165 34.7299 63.2165V63.22Z" fill="white"/>
<path d="M44.4209 62V63.2378H39.947V64.9001H44.4209V66.0672H39.947V67.8108H44.4209V69.0486H38.6172V62H44.4209Z" fill="white"/>
<path d="M46.3064 69.0522H44.9766V62H49.0579C49.3585 62 49.6698 62.0283 49.9845 62.0849C50.2993 62.1415 50.5893 62.2405 50.851 62.382C51.1127 62.5234 51.3249 62.7109 51.4912 62.9408C51.6538 63.1706 51.7387 63.4677 51.7387 63.8214C51.7387 64.0619 51.6751 64.2776 51.5407 64.4615C51.4098 64.6454 51.2436 64.8011 51.0455 64.9248C50.8475 65.0486 50.6317 65.1441 50.4018 65.2113C50.1684 65.2785 49.9562 65.3139 49.7617 65.321H51.7352V69.0486H50.3134V66.4881H46.3028V69.0486L46.3064 69.0522ZM46.3064 63.1883V65.3245H49.0473C49.2347 65.3245 49.408 65.2997 49.5672 65.2502C49.7263 65.2007 49.8678 65.1229 49.9916 65.0239C50.1154 64.9248 50.2109 64.8046 50.2781 64.6667C50.3453 64.5287 50.3771 64.3731 50.3771 64.1998C50.3771 64.0053 50.3382 63.8426 50.2568 63.7153C50.1755 63.588 50.0729 63.4854 49.9456 63.4076C49.8183 63.3298 49.6768 63.2767 49.5212 63.2414C49.3656 63.2095 49.2135 63.1919 49.0579 63.1919H46.3064V63.1883Z" fill="white"/>
<path d="M61.981 65.4766C61.981 65.8727 61.882 66.2405 61.6875 66.5765C61.4929 66.9125 61.21 67.1883 60.8351 67.4076C60.4638 67.6269 60.0075 67.7719 59.4699 67.8462C58.9324 67.9204 58.317 67.8886 57.6273 67.7542L61.9209 68.7197V70L58.1932 69.1441C57.6344 69.0027 57.1251 68.8435 56.6618 68.6667C56.1985 68.4898 55.7989 68.2599 55.4664 67.9805C55.134 67.7011 54.8758 67.3652 54.6919 66.9726C54.508 66.58 54.416 66.099 54.416 65.5261C54.416 64.359 54.7449 63.4783 55.3992 62.8877C56.0535 62.2971 56.9907 62 58.2038 62C58.8086 62 59.3462 62.0813 59.8165 62.2405C60.2869 62.4032 60.6795 62.6331 61.0013 62.9372C61.3196 63.2378 61.5637 63.6057 61.7334 64.0371C61.8997 64.4686 61.9845 64.9461 61.9845 65.4766H61.981ZM60.6335 65.5049C60.6335 65.1618 60.5805 64.8541 60.4708 64.5782C60.3647 64.3024 60.2056 64.0654 59.9969 63.8674C59.7883 63.6693 59.5336 63.5172 59.2365 63.4076C58.9359 63.3015 58.5964 63.2449 58.2144 63.2449C57.4293 63.2449 56.8245 63.4465 56.4001 63.8532C55.9757 64.2599 55.767 64.8152 55.767 65.519C55.767 65.8621 55.8272 66.1733 55.9439 66.4562C56.0606 66.7392 56.2268 66.9797 56.4425 67.1777C56.6583 67.3758 56.9129 67.5279 57.2135 67.6375C57.5142 67.7436 57.8466 67.8002 58.2144 67.8002C58.6035 67.8002 58.9465 67.7436 59.2471 67.634C59.5478 67.5243 59.7989 67.3687 60.004 67.1706C60.2091 66.9726 60.3647 66.7321 60.4708 66.4492C60.5769 66.1662 60.6335 65.8515 60.6335 65.5013V65.5049Z" fill="white"/>
<path d="M62.5361 66.3324V62H63.8659V66.2617C63.8659 66.6048 63.9261 66.8771 64.0428 67.0787C64.1595 67.2803 64.3186 67.4324 64.5167 67.5385C64.7147 67.641 64.9446 67.7082 65.2134 67.7401C65.4787 67.7719 65.7545 67.786 66.0445 67.786C66.3345 67.786 66.5998 67.7719 66.865 67.7401C67.1303 67.7082 67.3637 67.641 67.5688 67.5349C67.774 67.4288 67.9367 67.2732 68.0569 67.0716C68.1772 66.87 68.2373 66.6012 68.2373 66.2653V62H69.5671V66.3324C69.5671 66.8983 69.4716 67.3546 69.2806 67.7082C69.0896 68.0619 68.8314 68.3378 68.5061 68.5358C68.1807 68.7339 67.8058 68.8683 67.3779 68.9425C66.9499 69.0168 66.5078 69.0522 66.0445 69.0522C65.5812 69.0522 65.1391 69.0168 64.7147 68.9425C64.2903 68.8683 63.919 68.7303 63.5971 68.5287C63.2753 68.3271 63.0171 68.0513 62.8261 67.6976C62.6352 67.3439 62.5397 66.8912 62.5397 66.3324H62.5361Z" fill="white"/>
<path d="M70.1719 62H71.5017V69.0522H70.1719V62Z" fill="white"/>
<path d="M75.7451 69.0522C75.1757 69.0522 74.6629 68.9744 74.2137 68.8152C73.7645 68.6561 73.3826 68.4262 73.0714 68.1256C72.7601 67.8249 72.5196 67.4536 72.3569 67.0186C72.1907 66.5836 72.1094 66.0884 72.1094 65.5367C72.1094 64.985 72.1978 64.4934 72.3711 64.0548C72.5444 63.6198 72.7955 63.2485 73.1173 62.9408C73.4392 62.6331 73.8282 62.4032 74.2809 62.2405C74.7336 62.0778 75.2429 62 75.8088 62C76.2332 62 76.6434 62.046 77.0431 62.1344C77.4427 62.2263 77.8034 62.3714 78.1253 62.5729C78.4471 62.7745 78.7195 63.0363 78.9352 63.3546C79.1545 63.6729 79.2924 64.0584 79.3525 64.5075H77.9909C77.9449 64.3059 77.8494 64.1256 77.7044 63.9699C77.5594 63.8108 77.3861 63.6799 77.1845 63.5703C76.9829 63.4642 76.7601 63.3828 76.5196 63.3298C76.2791 63.2767 76.028 63.2485 75.7734 63.2485C75.3702 63.2485 75.0271 63.305 74.7407 63.4147C74.4542 63.5243 74.2172 63.6799 74.0263 63.8815C73.8353 64.0831 73.6938 64.3236 73.6019 64.603C73.5099 64.8824 73.4675 65.1901 73.4675 65.5261C73.4675 65.8621 73.5099 66.1592 73.5983 66.4385C73.6867 66.7179 73.8247 66.9584 74.0157 67.1636C74.2066 67.3687 74.4471 67.5279 74.7371 67.6375C75.0271 67.7471 75.3702 67.8037 75.7734 67.8037C76.0033 67.8037 76.2367 67.779 76.4772 67.7294C76.7177 67.6799 76.944 67.6021 77.1527 67.496C77.3614 67.3935 77.5453 67.2591 77.7009 67.0964C77.86 66.9337 77.9661 66.7427 78.0192 66.5234H79.3596C79.2853 66.9726 79.1368 67.3581 78.9104 67.6764C78.6841 67.9947 78.4082 68.2564 78.0793 68.4615C77.7504 68.6667 77.3826 68.8152 76.9829 68.9107C76.5798 69.0062 76.166 69.0522 75.7451 69.0522Z" fill="white"/>
<path d="M86.6168 62L83.7556 65.1229L86.638 69.0522H85.0359L82.6769 65.8585H81.4568V69.0522H80.127V62H81.4568V65.7595L84.8025 62H86.6168Z" fill="white"/>
</g>
<defs>
<linearGradient id="paint0_linear_1007_543" x1="62.812" y1="25.9268" x2="51.4969" y2="10.1568" gradientUnits="userSpaceOnUse">
<stop offset="0.3" stop-color="#FCC875"/>
<stop offset="0.7" stop-color="#F79A45"/>
</linearGradient>
<linearGradient id="paint1_linear_1007_543" x1="65.0453" y1="-11.9571" x2="17.2921" y2="48.7785" gradientUnits="userSpaceOnUse">
<stop offset="0.1" stop-color="#D0188D"/>
<stop offset="0.2" stop-color="#D41881"/>
<stop offset="0.6" stop-color="#2B388F"/>
<stop offset="0.8" stop-color="#2E3191"/>
</linearGradient>
<linearGradient id="paint2_linear_1007_543" x1="15.39" y1="-2.01654" x2="69.771" y2="67.8677" gradientUnits="userSpaceOnUse">
<stop offset="0.18" stop-color="#D41881"/>
<stop offset="0.3" stop-color="#D0188D"/>
<stop offset="0.75" stop-color="#2B388F"/>
<stop offset="0.9" stop-color="#2E3191"/>
</linearGradient>
<clipPath id="clip0_1007_543">
<rect width="42.9545" height="42" fill="white" transform="translate(21.8398)"/>
</clipPath>
<clipPath id="clip1_1007_543">
<rect width="68" height="12" fill="white" transform="translate(9.31738 46)"/>
</clipPath>
<clipPath id="clip2_1007_543">
<rect width="86.6348" height="8" fill="white" transform="translate(0 62)"/>
</clipPath>
</defs>
</svg>
