<svg xmlns="http://www.w3.org/2000/svg" width="36" height="37" viewBox="0 0 36 37" fill="none">
  <g clip-path="url(#clip0_585_8718)">
    <path d="M26.1064 8.93365V13.5171C25.9867 13.5061 25.8695 13.4924 25.7523 13.4718C23.24 13.0553 21.3052 10.6149 21.3052 7.71003C21.3052 7.69222 21.3052 6.06987 21.3052 5.47656H21.6618C23.8878 5.47656 25.5265 6.81939 26.1076 8.93228L26.1064 8.93365Z" fill="url(#paint0_linear_585_8718)"/>
    <path d="M26.1064 0.14502V8.93366C25.5252 6.82077 23.8866 5.47795 21.6606 5.47795H21.3039L17.923 5.53139C14.1434 5.90409 11.1795 9.42694 11.1795 13.7199C11.1795 16.4631 12.39 18.8897 14.2483 20.3833C10.8316 18.7925 8.64996 15.2148 8.64996 10.6971C8.64996 6.66593 10.3738 3.40342 13.1674 1.6235C13.9534 1.12199 14.8246 0.738328 15.7661 0.487577C16.6039 0.264229 17.4973 0.14502 18.4363 0.14502H26.1089L26.1064 0.14502Z" fill="url(#paint1_linear_585_8718)"/>
    <path d="M27.3613 21.2823H18.4326C16.9025 21.2823 15.4934 20.9644 14.2459 20.3834C12.3876 18.8898 11.1771 16.4618 11.1771 13.72C11.1771 9.42568 14.141 5.90283 17.9205 5.53149C15.539 5.87542 14.0015 7.85266 14.0015 10.6973C14.0015 13.8159 15.8734 15.9493 18.6794 15.9493H22.1159V15.9397H22.5502C24.0322 15.9397 25.3562 16.6838 26.2385 17.854C26.9381 18.7816 27.3613 19.9778 27.3613 21.2823Z" fill="url(#paint2_linear_585_8718)"/>
    <path d="M1.51657 35.7079C1.27966 35.7079 1.06742 35.6709 0.879864 35.5983C0.692306 35.5257 0.534362 35.4188 0.404799 35.2804C0.275236 35.1406 0.175288 34.9707 0.107421 34.7693C0.039555 34.5679 0.00500488 34.3404 0.00500488 34.0856C0.00500488 33.8307 0.0407889 33.6032 0.113591 33.4018C0.186393 33.2004 0.28881 33.0291 0.423308 32.888C0.557807 32.7468 0.718218 32.6386 0.90701 32.5646C1.0958 32.4906 1.3068 32.4536 1.54125 32.4536C1.7177 32.4536 1.88799 32.4742 2.05457 32.5166C2.22115 32.5591 2.37045 32.6263 2.50495 32.7194C2.63945 32.8126 2.75174 32.9332 2.84182 33.0798C2.93189 33.2264 2.98989 33.4046 3.0158 33.6115H2.45066C2.43092 33.5183 2.39143 33.4361 2.33097 33.3621C2.27051 33.2895 2.19894 33.2278 2.11503 33.1785C2.03112 33.1291 1.93858 33.0921 1.83863 33.0675C1.73868 33.0428 1.63503 33.0305 1.52891 33.0305C1.3611 33.0305 1.21796 33.0565 1.0995 33.1072C0.981046 33.1579 0.882331 33.2305 0.802126 33.3237C0.72192 33.4169 0.663925 33.5279 0.626907 33.6567C0.588655 33.7855 0.570146 33.9266 0.570146 34.0814C0.570146 34.2363 0.588655 34.3733 0.624439 34.5021C0.660223 34.6309 0.718218 34.7419 0.798424 34.8364C0.87863 34.931 0.977344 35.0036 1.09827 35.0543C1.21796 35.105 1.36233 35.131 1.52891 35.131C1.62393 35.131 1.72141 35.1201 1.82135 35.0968C1.9213 35.0735 2.01508 35.0379 2.10146 34.9899C2.18783 34.9419 2.26434 34.8803 2.32973 34.8063C2.39513 34.7323 2.43955 34.6432 2.46177 34.5418H3.01827C2.98742 34.7501 2.92572 34.9269 2.83195 35.0735C2.73817 35.2201 2.62341 35.3421 2.48644 35.4366C2.34948 35.5311 2.1977 35.5997 2.02989 35.6435C1.86207 35.6874 1.69056 35.7093 1.51534 35.7093L1.51657 35.7079Z" fill="#48368F"/>
    <path d="M6.16357 32.4536V35.7079H5.61077V34.3555H3.80183V35.7079H3.24902V32.4536H3.80183V33.7786H5.61077V32.4536H6.16357Z" fill="#48368F"/>
    <path d="M8.53768 32.4536L9.56802 35.7079H8.96956L8.74745 34.9831H7.19023L6.95578 35.7079H6.36102L7.41974 32.4536H7.98118L7.34077 34.4624H8.59691L7.98118 32.4536H8.53768Z" fill="#48368F"/>
    <path d="M10.317 35.7079H9.76416V32.4536H11.4596C11.5854 32.4536 11.7138 32.4673 11.8446 32.4934C11.9754 32.5194 12.0963 32.566 12.2049 32.6304C12.3135 32.6961 12.4023 32.7811 12.4702 32.888C12.538 32.9949 12.5726 33.1305 12.5726 33.2949C12.5726 33.4059 12.5454 33.5046 12.4912 33.5895C12.4369 33.6745 12.3678 33.7457 12.2863 33.8033C12.2036 33.8608 12.1148 33.9047 12.0186 33.9362C11.9223 33.9677 11.8335 33.9842 11.7533 33.9869H12.5738V35.7065H11.984V34.5254H10.3182V35.7065L10.317 35.7079ZM10.317 33.0017V33.9869H11.4559C11.5336 33.9869 11.6064 33.9759 11.6718 33.9526C11.7372 33.9293 11.7964 33.8951 11.847 33.8485C11.8976 33.8019 11.9384 33.7471 11.9667 33.6841C11.9951 33.621 12.0087 33.5484 12.0087 33.4676C12.0087 33.3771 11.9914 33.3032 11.9581 33.2442C11.9248 33.1853 11.8816 33.1387 11.8285 33.1031C11.7755 33.0675 11.7175 33.0414 11.6533 33.0264C11.5891 33.0113 11.525 33.0031 11.4608 33.0031H10.3182L10.317 33.0017Z" fill="#48368F"/>
    <path d="M14.4359 33.0168C14.0953 33.0168 13.8362 33.1073 13.6597 33.2881C13.482 33.469 13.3944 33.7444 13.3944 34.113C13.3944 34.4816 13.4845 34.7351 13.6646 34.9009C13.8448 35.0667 14.0941 35.1503 14.4124 35.1503C14.5124 35.1503 14.6172 35.1311 14.7246 35.0941C14.8319 35.0571 14.9294 35.0064 15.0158 34.9406C15.1022 34.8749 15.1737 34.7981 15.2293 34.7077C15.2848 34.6173 15.3132 34.52 15.3132 34.4145H14.3791V33.8842H15.824V35.66H15.3132V34.4145C15.3132 34.5419 15.2984 34.6803 15.2688 34.831C15.2391 34.9817 15.1886 35.1215 15.1157 35.2517C15.0429 35.3818 14.9442 35.4901 14.8208 35.5764C14.6962 35.6627 14.5395 35.7066 14.3495 35.7066C14.1126 35.7066 13.8991 35.671 13.7115 35.5997C13.5227 35.5285 13.3636 35.4243 13.2328 35.2887C13.102 35.1516 13.002 34.9831 12.9329 34.7817C12.8651 34.5803 12.8305 34.3487 12.8305 34.0883C12.8305 33.8033 12.8712 33.5581 12.9514 33.3512C13.0329 33.1456 13.1452 32.9757 13.2908 32.8414C13.4364 32.7085 13.6066 32.6099 13.8041 32.5468C14.0003 32.4838 14.2162 32.4509 14.4507 32.4509C14.6185 32.4509 14.7801 32.4715 14.9368 32.514C15.0935 32.5564 15.2342 32.6222 15.3601 32.7113C15.4859 32.8017 15.5896 32.9168 15.6723 33.0593C15.7549 33.2018 15.8055 33.3745 15.8253 33.5759H15.2638C15.2391 33.4676 15.1984 33.3772 15.1441 33.3046C15.0898 33.232 15.0257 33.173 14.9541 33.1306C14.8825 33.0881 14.8011 33.0566 14.7135 33.0401C14.6259 33.0237 14.5346 33.0141 14.4396 33.0141L14.4359 33.0168Z" fill="#48368F"/>
    <path d="M18.4634 32.4536V33.025H16.6051V33.7923H18.4634V34.3322H16.6051V35.1365H18.4634V35.7079H16.0523V32.4536H18.4634Z" fill="#48368F"/>
    <path d="M19.2457 35.7079H18.6929V32.4536H20.3884C20.5142 32.4536 20.6425 32.4673 20.7733 32.4934C20.9041 32.5194 21.0251 32.566 21.1337 32.6304C21.2422 32.6961 21.3311 32.7811 21.3989 32.888C21.4668 32.9949 21.5014 33.1305 21.5014 33.2949C21.5014 33.4059 21.4742 33.5046 21.4199 33.5895C21.3656 33.6745 21.2965 33.7457 21.2151 33.8033C21.1324 33.8608 21.0436 33.9047 20.9473 33.9362C20.8511 33.9677 20.7622 33.9842 20.682 33.9869H21.5026V35.7065H20.9128V34.5254H19.247V35.7065L19.2457 35.7079ZM19.2457 33.0017V33.9869H20.3847C20.4624 33.9869 20.5352 33.9759 20.6006 33.9526C20.666 33.9293 20.7252 33.8951 20.7758 33.8485C20.8264 33.8019 20.8671 33.7471 20.8955 33.6841C20.9239 33.621 20.9375 33.5484 20.9375 33.4676C20.9375 33.3771 20.9202 33.3032 20.8869 33.2442C20.8535 33.1853 20.8104 33.1387 20.7573 33.1031C20.7042 33.0675 20.6462 33.0414 20.5821 33.0264C20.5179 33.0113 20.4538 33.0031 20.3896 33.0031H19.247L19.2457 33.0017Z" fill="#48368F"/>
    <path d="M25.7609 34.0582C25.7609 34.2405 25.7202 34.4104 25.64 34.5652C25.5585 34.7201 25.4413 34.8475 25.2858 34.9489C25.1303 35.0503 24.9416 35.1174 24.7182 35.1517C24.4949 35.1859 24.2394 35.1722 23.9519 35.1092L25.735 35.5559V36.1465L24.1864 35.7518C23.9544 35.6861 23.7422 35.6135 23.5497 35.5312C23.3572 35.449 23.1918 35.3435 23.0536 35.2147C22.9154 35.0859 22.8081 34.9311 22.7316 34.7502C22.6551 34.5693 22.6168 34.346 22.6168 34.0829C22.6168 33.543 22.7526 33.1375 23.0253 32.8648C23.298 32.5921 23.6866 32.4551 24.1913 32.4551C24.443 32.4551 24.6652 32.4921 24.8613 32.5661C25.0563 32.6401 25.2204 32.7469 25.3537 32.8867C25.4857 33.0265 25.5869 33.195 25.6572 33.3937C25.7276 33.5924 25.7621 33.8143 25.7621 34.0582H25.7609ZM25.1994 34.0719C25.1994 33.9144 25.1772 33.7719 25.1328 33.6444C25.0884 33.517 25.023 33.4088 24.9366 33.317C24.8502 33.2251 24.7441 33.1553 24.6207 33.1059C24.4961 33.0566 24.3554 33.0319 24.1963 33.0319C23.8693 33.0319 23.6188 33.1251 23.4423 33.3128C23.2671 33.5006 23.1783 33.7568 23.1783 34.0829C23.1783 34.2405 23.2029 34.3857 23.2511 34.5159C23.3004 34.6461 23.3695 34.7571 23.4584 34.8489C23.5472 34.9407 23.6546 35.0106 23.7792 35.0599C23.9038 35.1092 24.042 35.1339 24.1963 35.1339C24.3579 35.1339 24.501 35.1078 24.6257 35.0571C24.7503 35.0064 24.8539 34.9352 24.9403 34.8434C25.0255 34.7516 25.0909 34.6406 25.1353 34.5104C25.1797 34.3802 25.2019 34.235 25.2019 34.0733L25.1994 34.0719Z" fill="#48368F"/>
    <path d="M25.9904 34.4528V32.4536H26.5432V34.4199C26.5432 34.5775 26.5679 34.7035 26.616 34.7967C26.6641 34.8899 26.7307 34.9598 26.8134 35.0077C26.8961 35.0557 26.9923 35.0872 27.1022 35.1009C27.212 35.1146 27.328 35.1214 27.4477 35.1214C27.5673 35.1214 27.6784 35.1146 27.7882 35.1009C27.898 35.0872 27.9955 35.0557 28.0807 35.005C28.1658 34.9557 28.2337 34.8844 28.2843 34.7912C28.3349 34.698 28.3595 34.5747 28.3595 34.4199V32.4536H28.9123V34.4528C28.9123 34.7131 28.8729 34.9241 28.7926 35.0872C28.7124 35.2502 28.6051 35.3777 28.4706 35.4681C28.3349 35.5599 28.1794 35.623 28.0017 35.6558C27.824 35.6901 27.6402 35.7065 27.4464 35.7065C27.2527 35.7065 27.0701 35.6901 26.8936 35.6558C26.7184 35.6216 26.5629 35.5585 26.4284 35.4654C26.2939 35.3722 26.1878 35.2448 26.1076 35.0817C26.0274 34.9187 25.9879 34.709 25.9879 34.4514L25.9904 34.4528Z" fill="#48368F"/>
    <path d="M29.1641 32.4536H29.7169V35.7079H29.1641V32.4536Z" fill="#48368F"/>
    <path d="M31.4789 35.7079C31.242 35.7079 31.0298 35.6709 30.8422 35.5983C30.6546 35.5257 30.4967 35.4188 30.3671 35.2804C30.2376 35.1406 30.1376 34.9707 30.0698 34.7693C30.0019 34.5679 29.9673 34.3404 29.9673 34.0856C29.9673 33.8307 30.0031 33.6032 30.0759 33.4018C30.1487 33.2004 30.2512 33.0291 30.3856 32.888C30.5201 32.7468 30.6806 32.6386 30.8694 32.5646C31.0581 32.4906 31.2691 32.4536 31.5036 32.4536C31.68 32.4536 31.8503 32.4742 32.0169 32.5166C32.1835 32.5591 32.3328 32.6263 32.4673 32.7194C32.6018 32.8126 32.7141 32.9332 32.8042 33.0798C32.8942 33.2264 32.9522 33.4046 32.9781 33.6115H32.413C32.3933 33.5183 32.3538 33.4361 32.2933 33.3621C32.2328 33.2895 32.1613 33.2278 32.0774 33.1785C31.9935 33.1291 31.9009 33.0921 31.801 33.0675C31.701 33.0428 31.5974 33.0305 31.4913 33.0305C31.3234 33.0305 31.1803 33.0565 31.0618 33.1072C30.9434 33.1579 30.8447 33.2305 30.7645 33.3237C30.6843 33.4169 30.6263 33.5279 30.5892 33.6567C30.551 33.7855 30.5325 33.9266 30.5325 34.0814C30.5325 34.2363 30.551 34.3733 30.5868 34.5021C30.6226 34.6309 30.6806 34.7419 30.7608 34.8364C30.841 34.931 30.9397 35.0036 31.0606 35.0543C31.1803 35.105 31.3247 35.131 31.4913 35.131C31.5863 35.131 31.6837 35.1201 31.7837 35.0968C31.8836 35.0735 31.9774 35.0379 32.0638 34.9899C32.1502 34.9419 32.2267 34.8803 32.2921 34.8063C32.3575 34.7323 32.4019 34.6432 32.4241 34.5418H32.9806C32.9498 34.7501 32.8881 34.9269 32.7943 35.0735C32.7005 35.2201 32.5858 35.3421 32.4488 35.4366C32.3118 35.5311 32.16 35.5997 31.9922 35.6435C31.8244 35.6874 31.6529 35.7093 31.4777 35.7093L31.4789 35.7079Z" fill="#48368F"/>
    <path d="M35.9963 32.4536L34.8068 33.8951L36.0037 35.7079H35.3374L34.3577 34.2335H33.8505V35.7079H33.2977V32.4536H33.8505V34.1883L35.2399 32.4536H35.9939H35.9963Z" fill="#48368F"/>
    <path d="M5.71689 26.9727C5.79956 26.8767 5.84151 26.7479 5.84151 26.5863C5.84151 26.2821 5.71689 26.1039 5.4664 26.0505L5.83658 25.5833H5.40964L4.96295 26.13V26.4684C5.05056 26.3862 5.14928 26.3451 5.25786 26.3451C5.42691 26.3451 5.51205 26.4177 5.51205 26.5643C5.51205 26.6849 5.45776 26.7452 5.34917 26.7452H4.77046L4.59277 27.1165H5.38496C5.52316 27.1165 5.63421 27.0686 5.71689 26.9727Z" fill="#48368F"/>
    <path d="M7.90215 29.4434C7.78739 29.4434 7.69485 29.4804 7.62575 29.5557C7.55664 29.6311 7.52209 29.7311 7.52209 29.8544C7.52209 29.9777 7.55664 30.086 7.62575 30.1641C7.69485 30.2436 7.78739 30.2819 7.90215 30.2819C8.0169 30.2819 8.10328 30.2436 8.17114 30.1668C8.23901 30.0901 8.27233 29.986 8.27233 29.8544C8.27233 29.7311 8.23901 29.6311 8.17114 29.5557C8.10328 29.4804 8.0132 29.4434 7.90215 29.4434Z" fill="#48368F"/>
    <path d="M8.74493 29.4434C8.63264 29.4434 8.54256 29.4804 8.47346 29.5557C8.40436 29.6311 8.36981 29.7311 8.36981 29.8544C8.36981 29.9777 8.40436 30.086 8.47346 30.1641C8.54256 30.2436 8.63387 30.2819 8.74493 30.2819C8.85598 30.2819 8.95099 30.2436 9.01886 30.1668C9.08673 30.0901 9.12004 29.986 9.12004 29.8544C9.12004 29.7311 9.08549 29.6311 9.01639 29.5557C8.94729 29.4804 8.85598 29.4434 8.74493 29.4434Z" fill="#48368F"/>
    <path d="M8.43028 27.8428C8.43028 27.9634 8.40807 28.047 8.36488 28.0963C8.32169 28.1457 8.24519 28.1703 8.1366 28.1703H7.41598C7.3074 28.1703 7.23213 28.1457 7.18771 28.0963C7.14329 28.047 7.12231 27.9634 7.12231 27.8428V25.323L6.38688 25.7574V27.8374C6.38688 27.9621 6.36591 28.0484 6.32395 28.0963C6.282 28.1457 6.20673 28.1703 6.09814 28.1703H4.45825C4.34966 28.1703 4.27439 28.1457 4.23244 28.0963C4.19048 28.047 4.16951 27.9607 4.16951 27.8374V26.9303L3.43408 27.3646V27.8826C3.43408 28.1868 3.50812 28.4348 3.65742 28.6266C3.82647 28.8486 4.05845 28.9596 4.35336 28.9596H6.16478C6.39799 28.9596 6.59665 28.8952 6.7583 28.7678C6.91377 28.8952 7.10997 28.9596 7.34688 28.9596H8.2094C8.48334 28.9596 8.70544 28.8733 8.87449 28.7006C9.07069 28.5019 9.1694 28.2265 9.1694 27.8771V26.4233L8.43398 26.8577V27.8442L8.43028 27.8428Z" fill="#48368F"/>
    <path d="M14.1853 26.6769C14.0089 26.5453 13.8115 26.4631 13.5918 26.4289L14.4753 25.3245H13.7337L12.7441 26.5481V27.3373C12.9366 27.262 13.118 27.225 13.287 27.225C13.4561 27.225 13.6054 27.262 13.7238 27.3373C13.9028 27.4497 13.9928 27.6196 13.9928 27.8443V27.8731C13.9928 28.0718 13.8966 28.1718 13.7041 28.1718H11.9939V27.388C11.9939 27.0838 11.9174 26.8372 11.7656 26.6495C11.5867 26.4316 11.3337 26.322 11.0092 26.322C10.7007 26.322 10.4539 26.4316 10.2676 26.6495C10.0578 26.8906 9.95294 27.2209 9.95294 27.6415C9.95294 27.9457 10.0319 28.2102 10.1911 28.4363C10.3836 28.7034 10.6501 28.861 10.9882 28.9103C11.0931 28.9254 11.1832 28.935 11.2572 28.9391C11.2436 29.0337 11.1893 29.1159 11.0943 29.1871C10.9993 29.2584 10.8944 29.294 10.7797 29.294C10.5971 29.294 10.4046 29.2296 10.201 29.1022V29.8174C10.4243 29.9558 10.6464 30.0257 10.8661 30.0257C11.14 30.0257 11.3781 29.9408 11.5817 29.7722C11.8285 29.5694 11.9643 29.2981 11.9877 28.961H13.7744C14.0447 28.961 14.2655 28.8761 14.4346 28.7076C14.6345 28.5157 14.7344 28.2472 14.7344 27.9019V27.8347C14.7344 27.3318 14.5518 26.9468 14.1866 26.6796L14.1853 26.6769ZM11.2572 28.1595C10.871 28.1595 10.6785 27.9772 10.6785 27.6127C10.6785 27.2483 10.7883 27.0879 11.008 27.0879C11.1733 27.0879 11.2572 27.1893 11.2572 27.3921V28.1581V28.1595Z" fill="#48368F"/>
    <path d="M20.0478 29.4434C19.933 29.4434 19.8405 29.4804 19.7714 29.5557C19.7023 29.6311 19.6677 29.7325 19.6677 29.8599C19.6677 29.9873 19.7023 30.0901 19.7714 30.1668C19.8405 30.2436 19.933 30.2819 20.0478 30.2819C20.1625 30.2819 20.2489 30.2436 20.3168 30.1668C20.3846 30.0901 20.418 29.9873 20.418 29.8599C20.418 29.7325 20.3846 29.6311 20.3168 29.5557C20.2489 29.4804 20.1601 29.4434 20.0478 29.4434Z" fill="#48368F"/>
    <path d="M20.6524 26.6453C20.3982 26.4288 20.1366 26.3206 19.8651 26.3206H19.8552C19.49 26.3206 19.163 26.4987 18.8755 26.8563V27.5661C19.2173 27.2386 19.5184 27.0756 19.7787 27.0756C20.0662 27.0756 20.3167 27.2674 20.5302 27.651C20.1983 27.9963 19.7565 28.169 19.205 28.169H18.2153C18.0389 28.169 17.9426 28.0923 17.9266 27.9374V26.422L17.9217 26.4274V26.422L17.1862 26.8563V28.6376C17.1862 28.9802 17.0826 29.1898 16.8765 29.2693C16.805 29.2994 16.7272 29.3145 16.6433 29.3145C16.478 29.3145 16.3064 29.2597 16.1312 29.1514V29.8612C16.3447 29.9928 16.5631 30.0585 16.7864 30.0585C16.9518 30.0585 17.106 30.0215 17.2479 29.9462C17.607 29.7626 17.8242 29.4241 17.9032 28.9322C17.9883 28.9514 18.0685 28.961 18.1462 28.961H19.2025C19.6356 28.961 20.0366 28.8664 20.4056 28.676C20.7745 28.4869 21.0818 28.217 21.3298 27.8675V27.5688C21.1336 27.1701 20.909 26.8632 20.6548 26.6467L20.6524 26.6453Z" fill="#48368F"/>
    <path d="M22.4737 28.6375C22.4737 28.98 22.37 29.1897 22.1639 29.2692C22.0924 29.2993 22.0146 29.3144 21.9307 29.3144C21.7654 29.3144 21.5939 29.2596 21.4186 29.1513V29.8611C21.6321 29.9926 21.8505 30.0584 22.0739 30.0584C22.2392 30.0584 22.3934 30.0214 22.5353 29.946C22.7513 29.8364 22.9191 29.6638 23.0376 29.4254C23.156 29.1869 23.2152 28.906 23.2152 28.5827V26.4246L22.4737 26.8644V28.6402V28.6375Z" fill="#48368F"/>
    <path d="M28.3312 25.0421C28.4323 25.0421 28.515 25.0079 28.5779 24.938C28.6409 24.8681 28.6717 24.7749 28.6717 24.6585C28.6717 24.4063 28.5582 24.2803 28.3312 24.2803C28.1041 24.2803 27.9857 24.4063 27.9857 24.6585C27.9857 24.7749 28.0165 24.8681 28.0794 24.938C28.1424 25.0079 28.2263 25.0421 28.3312 25.0421Z" fill="#48368F"/>
    <path d="M28.3817 25.5271C28.3817 25.6546 28.4163 25.7587 28.4854 25.8368C28.5545 25.9163 28.6458 25.9547 28.7568 25.9547C28.8679 25.9547 28.9592 25.9163 29.0283 25.8396C29.0974 25.7628 29.1319 25.6587 29.1319 25.5271C29.1319 25.4038 29.0974 25.3024 29.0283 25.2257C28.9592 25.149 28.8679 25.1106 28.7568 25.1106C28.6458 25.1106 28.5545 25.149 28.4854 25.2257C28.4163 25.3024 28.3817 25.4038 28.3817 25.5271Z" fill="#48368F"/>
    <path d="M27.9104 25.9547C28.0227 25.9547 28.1128 25.9163 28.1819 25.8396C28.251 25.7628 28.2855 25.6587 28.2855 25.5271C28.2855 25.4038 28.251 25.3024 28.1819 25.2257C28.1128 25.149 28.0214 25.1106 27.9104 25.1106C27.7993 25.1106 27.708 25.149 27.6389 25.2257C27.5698 25.3024 27.5353 25.4038 27.5353 25.5271C27.5353 25.6505 27.5698 25.7587 27.6389 25.8368C27.708 25.9163 27.7993 25.9547 27.9104 25.9547Z" fill="#48368F"/>
    <path d="M32.2032 25.9162C32.318 25.9162 32.4093 25.8778 32.4772 25.8011C32.545 25.7244 32.5784 25.6202 32.5784 25.4887C32.5784 25.364 32.5438 25.2654 32.4747 25.19C32.4056 25.1146 32.3143 25.0776 32.2032 25.0776C32.0922 25.0776 32.0009 25.1146 31.9318 25.19C31.8627 25.2654 31.8281 25.364 31.8281 25.4887C31.8281 25.6134 31.8627 25.7203 31.9318 25.7984C32.0009 25.8778 32.0922 25.9162 32.2032 25.9162Z" fill="#48368F"/>
    <path d="M31.8133 27.8429C31.8133 27.9635 31.7911 28.0471 31.7479 28.0964C31.7048 28.1458 31.6283 28.1704 31.5197 28.1704H30.8139C30.672 28.1704 30.5732 28.1375 30.5189 28.0718C30.4647 28.006 30.4375 27.8909 30.4375 27.7251V26.4234L29.6959 26.8577V27.8443C29.6959 27.9676 29.6749 28.054 29.633 28.1005C29.591 28.1471 29.5158 28.1704 29.4072 28.1704H29.0061C28.8976 28.1704 28.8223 28.1471 28.7803 28.1005C28.7384 28.054 28.7174 27.9676 28.7174 27.8443V26.559L27.982 26.9879V27.8443C27.982 27.9649 27.9598 28.0485 27.9166 28.0978C27.8734 28.1471 27.7969 28.1718 27.6883 28.1718H27.2971C27.1849 28.1718 27.1084 28.1471 27.0664 28.0978C27.0244 28.0485 27.0035 27.9649 27.0035 27.8443V26.6892L26.268 27.1236V27.8457C26.268 27.969 26.2471 28.0553 26.2051 28.1019C26.1632 28.1485 26.0879 28.1718 25.9793 28.1718H25.1871C25.0785 28.1718 25.0033 28.1471 24.9588 28.0978C24.9144 28.0485 24.8934 27.9649 24.8934 27.8443V25.3245L24.158 25.7588V27.8786C24.158 28.1828 24.2345 28.4321 24.3863 28.6281C24.5627 28.8501 24.8058 28.961 25.1168 28.961H26.0459C26.2791 28.961 26.4753 28.8912 26.6345 28.7528C26.7974 28.8912 26.9948 28.961 27.228 28.961H27.8018C28.0178 28.9501 28.2016 28.8802 28.3497 28.7528C28.5126 28.8912 28.71 28.961 28.9432 28.961H29.517C29.7601 28.9501 29.9587 28.8706 30.1105 28.724C30.2894 28.8816 30.5128 28.961 30.7805 28.961H31.5925C31.8664 28.961 32.0885 28.8747 32.2576 28.7021C32.4538 28.5034 32.5525 28.228 32.5525 27.8786V26.4248L31.817 26.8591V27.8457L31.8133 27.8429Z" fill="#48368F"/>
    <path d="M31.3617 25.9162C31.4727 25.9162 31.5628 25.8778 31.6307 25.8011C31.6985 25.7244 31.7319 25.6202 31.7319 25.4887C31.7319 25.364 31.6985 25.2654 31.6307 25.19C31.5628 25.1146 31.474 25.0776 31.3617 25.0776C31.2494 25.0776 31.1544 25.1146 31.0853 25.19C31.0162 25.2654 30.9816 25.364 30.9816 25.4887C30.9816 25.6134 31.0162 25.7203 31.0853 25.7984C31.1544 25.8778 31.2469 25.9162 31.3617 25.9162Z" fill="#48368F"/>
  </g>
  <defs>
    <linearGradient id="paint0_linear_585_8718" x1="26.4976" y1="13.1937" x2="20.5918" y2="6.0667" gradientUnits="userSpaceOnUse">
      <stop offset="0.3" stop-color="#FCC875"/>
      <stop offset="0.7" stop-color="#F79A45"/>
    </linearGradient>
    <linearGradient id="paint1_linear_585_8718" x1="27.4699" y1="-5.87302" x2="2.85451" y2="21.2313" gradientUnits="userSpaceOnUse">
      <stop offset="0.1" stop-color="#D0188D"/>
      <stop offset="0.2" stop-color="#D41881"/>
      <stop offset="0.6" stop-color="#2B388F"/>
      <stop offset="0.8" stop-color="#2E3191"/>
    </linearGradient>
    <linearGradient id="paint2_linear_585_8718" x1="5.83907" y1="-0.86884" x2="33.9114" y2="30.3611" gradientUnits="userSpaceOnUse">
      <stop offset="0.18" stop-color="#D41881"/>
      <stop offset="0.3" stop-color="#D0188D"/>
      <stop offset="0.75" stop-color="#2B388F"/>
      <stop offset="0.9" stop-color="#2E3191"/>
    </linearGradient>
    <clipPath id="clip0_585_8718">
      <rect width="36" height="36" fill="white" transform="translate(0.00500488 0.14502)"/>
    </clipPath>
  </defs>
</svg>