<svg width="144" height="144" viewBox="0 0 144 144" fill="none" xmlns="http://www.w3.org/2000/svg">
<rect width="144" height="144" rx="72" fill="url(#paint0_linear_585_10810)" fill-opacity="0.15"/>
<rect x="1" y="1" width="142" height="142" rx="71" stroke="url(#paint1_linear_585_10810)" stroke-opacity="0.05" stroke-width="2"/>
<rect x="17" y="17" width="110" height="110" rx="55" fill="url(#paint2_linear_585_10810)" fill-opacity="0.15"/>
<rect x="17" y="17" width="110" height="110" rx="55" stroke="url(#paint3_linear_585_10810)" stroke-width="2"/>
<rect x="35" y="35" width="74" height="74" rx="37" fill="url(#paint4_linear_585_10810)" fill-opacity="0.15"/>
<rect x="35" y="35" width="74" height="74" rx="37" stroke="url(#paint5_linear_585_10810)" stroke-width="2"/>
<path d="M64.7067 59.4151C67.835 58.1634 69.7017 57.4167 72 57.4167C74.3 57.4167 76.165 58.1634 79.2934 59.4151L84.2434 61.3951C85.8334 62.0317 87.1217 62.5451 88.0067 63.0101C88.4534 63.2434 88.8867 63.5101 89.2217 63.8317C89.565 64.1617 89.9167 64.6617 89.9167 65.3334C89.9167 66.0051 89.5667 66.5051 89.2217 66.8351C88.8884 67.1567 88.455 67.4217 88.005 67.6567C87.1217 68.1201 85.8334 68.6351 84.2417 69.2734L79.2917 71.2517C76.1667 72.5034 74.3 73.2501 72 73.2501C69.7 73.2501 67.835 72.5034 64.7067 71.2517L59.7584 69.2717C58.1667 68.6351 56.8784 68.1217 55.9934 67.6567C55.5526 67.4399 55.1437 67.1635 54.7784 66.8351C54.435 66.5051 54.0834 66.0051 54.0834 65.3334C54.0834 64.6617 54.4334 64.1617 54.7784 63.8317C55.1117 63.5101 55.545 63.2451 55.995 63.0101C56.8784 62.5467 58.1667 62.0317 59.7584 61.3934L64.7067 59.4151Z" fill="#856EDF"/>
<path opacity="0.7" d="M56.17 71.0716L56.1667 71.0666C56.0442 70.9572 55.9014 70.8729 55.7464 70.8187C55.5914 70.7644 55.4272 70.7413 55.2632 70.7505C55.0993 70.7597 54.9387 70.8011 54.7907 70.8723C54.6428 70.9436 54.5103 71.0433 54.4009 71.1658C54.2914 71.2882 54.2072 71.431 54.1529 71.586C54.0987 71.7411 54.0755 71.9052 54.0847 72.0692C54.1033 72.4004 54.2527 72.7106 54.5 72.9316L54.5034 72.9349L54.5117 72.9416L54.535 72.9616C54.5517 72.9783 54.5784 72.9999 54.61 73.0266C55.0213 73.3588 55.4497 73.6692 55.8934 73.9566C56.7834 74.5333 58.095 75.2733 59.8334 75.9683L64.515 77.8416L64.7067 77.9183C67.835 79.1699 69.7017 79.9166 72 79.9166C74.3 79.9166 76.165 79.1699 79.2917 77.9183L79.485 77.8416L84.1667 75.9666C85.5414 75.4249 86.8604 74.7512 88.105 73.9549C88.5493 73.6676 88.9782 73.3572 89.39 73.0249L89.465 72.9599L89.4884 72.9399L89.4967 72.9333L89.4984 72.9299H89.5017C89.749 72.7089 89.8984 72.3987 89.917 72.0676C89.9356 71.7364 89.8219 71.4114 89.6009 71.1641C89.3798 70.9168 89.0696 70.7674 88.7385 70.7488C88.4073 70.7302 88.0823 70.8439 87.835 71.0649L87.8317 71.0683L87.8284 71.0699L87.7884 71.1049L87.5917 71.2616C87.3177 71.4714 87.0353 71.6699 86.745 71.8566C85.9784 72.3549 84.81 73.0183 83.2367 73.6466L78.5567 75.5183C75.1817 76.8683 73.7667 77.4149 72 77.4149C70.2334 77.4149 68.8167 76.8683 65.4434 75.5183L60.7617 73.6499C59.5378 73.1679 58.3634 72.5684 57.255 71.8599C56.8802 71.6171 56.5186 71.3545 56.1717 71.0733" fill="#856EDF"/>
<path opacity="0.4" d="M56.165 77.8334C55.9175 77.6147 55.5936 77.5027 55.2639 77.5221C54.9342 77.5414 54.6255 77.6904 54.4054 77.9366C54.1852 78.1827 54.0714 78.506 54.0888 78.8358C54.1062 79.1656 54.2534 79.4752 54.4983 79.6968H54.5L54.5033 79.7001L54.5116 79.7068L54.535 79.7268C54.5516 79.7434 54.5783 79.7651 54.61 79.7918L54.8783 80.0084C55.1116 80.1868 55.45 80.4334 55.895 80.7218C56.7833 81.2984 58.095 82.0384 59.8333 82.7334L64.515 84.6068L64.7066 84.6834C67.835 85.9351 69.7016 86.6834 72 86.6834C74.3 86.6834 76.165 85.9351 79.2916 84.6834L79.485 84.6068L84.1666 82.7334C85.5414 82.1911 86.8603 81.5169 88.105 80.7201C88.5492 80.4327 88.9782 80.1223 89.39 79.7901C89.4152 79.7687 89.4402 79.747 89.465 79.7251L89.4883 79.7051L89.4966 79.6984L89.4983 79.6968L89.5016 79.6934C89.7465 79.4718 89.8937 79.1623 89.9111 78.8325C89.9286 78.5027 89.8147 78.1794 89.5946 77.9333C89.3744 77.6871 89.0657 77.5381 88.736 77.5187C88.4063 77.4994 88.0824 77.6113 87.835 77.8301L87.8316 77.8334L87.8283 77.8351L87.7883 77.8701L87.5916 78.0268C87.3176 78.2366 87.0352 78.4351 86.745 78.6218C85.9783 79.1201 84.81 79.7834 83.2366 80.4118L78.5566 82.2834C75.1816 83.6334 73.7666 84.1801 72 84.1801C70.2333 84.1801 68.8166 83.6334 65.4433 82.2834L60.7616 80.4118C59.5378 79.9302 58.3634 79.3313 57.255 78.6234C56.8946 78.3902 56.5464 78.1388 56.2116 77.8701L56.17 77.8368L56.165 77.8334Z" fill="#856EDF"/>
<defs>
<linearGradient id="paint0_linear_585_10810" x1="0" y1="0" x2="171.727" y2="86.7029" gradientUnits="userSpaceOnUse">
<stop stop-color="white" stop-opacity="0.8"/>
<stop offset="1" stop-color="white" stop-opacity="0.2"/>
</linearGradient>
<linearGradient id="paint1_linear_585_10810" x1="1.11765" y1="1.14937" x2="171.598" y2="87.3935" gradientUnits="userSpaceOnUse">
<stop stop-color="white"/>
<stop offset="1" stop-color="white" stop-opacity="0"/>
</linearGradient>
<linearGradient id="paint2_linear_585_10810" x1="16" y1="16" x2="149.565" y2="83.4356" gradientUnits="userSpaceOnUse">
<stop stop-color="white" stop-opacity="0.8"/>
<stop offset="1" stop-color="white" stop-opacity="0.2"/>
</linearGradient>
<linearGradient id="paint3_linear_585_10810" x1="72" y1="16" x2="72" y2="128" gradientUnits="userSpaceOnUse">
<stop stop-color="#333333"/>
<stop offset="0.82384" stop-color="#333333" stop-opacity="0"/>
</linearGradient>
<linearGradient id="paint4_linear_585_10810" x1="36" y1="36" x2="121.863" y2="79.3514" gradientUnits="userSpaceOnUse">
<stop stop-color="white" stop-opacity="0.8"/>
<stop offset="1" stop-color="white" stop-opacity="0.2"/>
</linearGradient>
<linearGradient id="paint5_linear_585_10810" x1="72" y1="36" x2="72" y2="108" gradientUnits="userSpaceOnUse">
<stop stop-color="#333333"/>
<stop offset="0.84964" stop-color="#333333" stop-opacity="0"/>
</linearGradient>
</defs>
</svg>
